Alegreya Sans-Italic.ufo
<glyph name="numbersign" format="1">
  <advance width="513"/>
  <unicode hex="0023"/>
  <outline>
    <contour>
      <point x="368" y="574" type="line"/>
      <point x="247" y="39" type="line"/>
      <point x="252" y="32" type="line"/>
      <point x="296" y="32" type="line"/>
      <point x="417" y="567" type="line"/>
      <point x="412" y="574" type="line"/>
    </contour>
    <contour>
      <point x="24" y="248" type="line"/>
      <point x="20" y="207" type="line"/>
      <point x="26" y="202" type="line"/>
      <point x="453" y="202" type="line"/>
      <point x="457" y="243" type="line"/>
      <point x="452" y="248" type="line"/>
    </contour>
    <contour>
      <point x="207" y="574" type="line"/>
      <point x="86" y="39" type="line"/>
      <point x="91" y="32" type="line"/>
      <point x="135" y="32" type="line"/>
      <point x="256" y="567" type="line"/>
      <point x="251" y="574" type="line"/>
    </contour>
    <contour>
      <point x="59" y="412" type="line"/>
      <point x="55" y="371" type="line"/>
      <point x="61" y="366" type="line"/>
      <point x="488" y="366" type="line"/>
      <point x="492" y="407" type="line"/>
      <point x="487" y="412" type="line"/>
    </contour>
  </outline>
</glyph>
<glyph name="ampersand" format="1">
  <advance width="635"/>
  <unicode hex="0026"/>
  <outline>
    <contour>
      <point x="200" y="649"/>
      <point x="121" y="579"/>
      <point x="121" y="473" type="curve" smooth="yes"/>
      <point x="121" y="409"/>
      <point x="151" y="359"/>
      <point x="205" y="333" type="curve"/>
      <point x="205" y="329" type="line"/>
      <point x="106" y="286"/>
      <point x="57" y="223"/>
      <point x="57" y="147" type="curve" smooth="yes"/>
      <point x="57" y="53"/>
      <point x="136" y="-9"/>
      <point x="266" y="-9" type="curve" smooth="yes"/>
      <point x="427" y="-9"/>
      <point x="511" y="86"/>
      <point x="511" y="201" type="curve" smooth="yes"/>
      <point x="511" y="242"/>
      <point x="500" y="280"/>
      <point x="481" y="308" type="curve"/>
      <point x="483" y="313" type="line"/>
      <point x="655" y="321" type="line"/>
      <point x="671" y="375" type="line"/>
      <point x="664" y="386" type="line"/>
      <point x="569" y="374" type="line"/>
      <point x="291" y="359" type="line"/>
      <point x="227" y="364"/>
      <point x="189" y="406"/>
      <point x="189" y="472" type="curve" smooth="yes"/>
      <point x="189" y="549"/>
      <point x="238" y="590"/>
      <point x="321" y="590" type="curve" smooth="yes"/>
      <point x="369" y="590"/>
      <point x="412" y="576"/>
      <point x="459" y="547" type="curve"/>
      <point x="471" y="549" type="line"/>
      <point x="491" y="613" type="line"/>
      <point x="437" y="637"/>
      <point x="390" y="649"/>
      <point x="334" y="649" type="curve" smooth="yes"/>
    </contour>
    <contour>
      <point x="429" y="286"/>
      <point x="445" y="247"/>
      <point x="445" y="202" type="curve" smooth="yes"/>
      <point x="445" y="112"/>
      <point x="387" y="47"/>
      <point x="276" y="47" type="curve" smooth="yes"/>
      <point x="187" y="47"/>
      <point x="132" y="90"/>
      <point x="132" y="158" type="curve" smooth="yes"/>
      <point x="132" y="222"/>
      <point x="177" y="269"/>
      <point x="254" y="303" type="curve"/>
      <point x="402" y="309" type="line"/>
    </contour>
  </outline>
</glyph>
<glyph name="quotesingle" format="1">
  <advance width="162"/>
  <unicode hex="0027"/>
  <outline>
    <contour>
      <point x="106" y="634" type="line"/>
      <point x="79" y="453" type="line"/>
      <point x="84" y="446" type="line"/>
      <point x="124" y="452" type="line"/>
      <point x="169" y="632" type="line"/>
      <point x="165" y="638" type="line"/>
    </contour>
  </outline>
</glyph>
<glyph name="parenleft" format="1">
  <advance width="287"/>
  <unicode hex="0028"/>
  <outline>
    <contour>
      <point x="287" y="662" type="line"/>
      <point x="103" y="542"/>
      <point x="66" y="311"/>
      <point x="66" y="152" type="curve" smooth="yes"/>
      <point x="66" y="13"/>
      <point x="99" y="-69"/>
      <point x="188" y="-141" type="curve"/>
      <point x="196" y="-141" type="line"/>
      <point x="227" y="-116" type="line"/>
      <point x="228" y="-109" type="line"/>
      <point x="152" y="-43"/>
      <point x="127" y="33"/>
      <point x="127" y="152" type="curve" smooth="yes"/>
      <point x="127" y="291"/>
      <point x="156" y="516"/>
      <point x="319" y="630" type="curve"/>
      <point x="320" y="637" type="line"/>
      <point x="295" y="662" type="line"/>
    </contour>
  </outline>
</glyph>
<glyph name="asterisk" format="1">
  <advance width="374"/>
  <unicode hex="002A"/>
  <outline>
    <contour>
      <point x="110" y="455" type="line"/>
      <point x="110" y="448" type="line"/>
      <point x="127" y="438"/>
      <point x="145" y="428"/>
      <point x="162" y="422" type="curve"/>
      <point x="221" y="514" type="line"/>
      <point x="221" y="523" type="line"/>
      <point x="194" y="538" type="line"/>
    </contour>
    <contour>
      <point x="94" y="651" type="line"/>
      <point x="88" y="633"/>
      <point x="86" y="611"/>
      <point x="86" y="593" type="curve"/>
      <point x="186" y="559" type="line"/>
      <point x="195" y="562" type="line"/>
      <point x="199" y="594" type="line"/>
      <point x="101" y="653" type="line"/>
    </contour>
    <contour>
      <point x="242" y="518" type="line"/>
      <point x="288" y="407" type="line"/>
      <point x="295" y="406" type="line"/>
      <point x="311" y="417"/>
      <point x="325" y="430"/>
      <point x="335" y="447" type="curve"/>
      <point x="273" y="538" type="line"/>
      <point x="265" y="539" type="line"/>
    </contour>
    <contour>
      <point x="251" y="732"/>
      <point x="231" y="729"/>
      <point x="213" y="723" type="curve"/>
      <point x="214" y="610" type="line"/>
      <point x="219" y="603" type="line"/>
      <point x="251" y="607" type="line"/>
      <point x="273" y="726" type="line"/>
      <point x="269" y="732" type="line"/>
    </contour>
    <contour>
      <point x="269" y="596" type="line"/>
      <point x="265" y="588" type="line"/>
      <point x="278" y="559" type="line"/>
      <point x="390" y="576" type="line"/>
      <point x="394" y="580" type="line"/>
      <point x="388" y="599"/>
      <point x="379" y="617"/>
      <point x="369" y="632" type="curve"/>
    </contour>
  </outline>
</glyph>
<glyph name="zero" format="1">
  <advance width="532"/>
  <unicode hex="0030"/>
  <outline>
    <contour>
      <point x="139" y="503"/>
      <point x="48" y="381"/>
      <point x="48" y="209" type="curve" smooth="yes"/>
      <point x="48" y="63"/>
      <point x="118" y="-7"/>
      <point x="239" y="-7" type="curve" smooth="yes"/>
      <point x="401" y="-7"/>
      <point x="490" y="112"/>
      <point x="490" y="286" type="curve" smooth="yes"/>
      <point x="490" y="434"/>
      <point x="421" y="503"/>
      <point x="301" y="503" type="curve" smooth="yes"/>
    </contour>
    <contour>
      <point x="384" y="435"/>
      <point x="429" y="381"/>
      <point x="429" y="274" type="curve" smooth="yes"/>
      <point x="429" y="141"/>
      <point x="364" y="60"/>
      <point x="246" y="60" type="curve" smooth="yes"/>
      <point x="152" y="60"/>
      <point x="108" y="112"/>
      <point x="108" y="218" type="curve" smooth="yes"/>
      <point x="108" y="350"/>
      <point x="172" y="435"/>
      <point x="290" y="435" type="curve" smooth="yes"/>
    </contour>
  </outline>
</glyph>
<glyph name="four" format="1">
  <advance width="479"/>
  <unicode hex="0034"/>
  <outline>
    <contour>
      <point x="309" y="498" type="line"/>
      <point x="14" y="135" type="line"/>
      <point x="9" y="84" type="line"/>
      <point x="14" y="77" type="line"/>
      <point x="78" y="79" type="line"/>
      <point x="333" y="79" type="line"/>
      <point x="423" y="77" type="line"/>
      <point x="434" y="130" type="line"/>
      <point x="430" y="137" type="line"/>
      <point x="82" y="137" type="line"/>
      <point x="302" y="406" type="line"/>
      <point x="309" y="406" type="line"/>
      <point x="273" y="120" type="line"/>
      <point x="243" y="-92" type="line"/>
      <point x="248" y="-97" type="line"/>
      <point x="305" y="-92" type="line"/>
      <point x="310" y="-86" type="line"/>
      <point x="331" y="109" type="line"/>
      <point x="380" y="498" type="line"/>
    </contour>
  </outline>
</glyph>
<glyph name="five" format="1">
  <advance width="416"/>
  <unicode hex="0035"/>
  <outline>
    <contour>
      <point x="308" y="498" type="line"/>
      <point x="173" y="498" type="line"/>
      <point x="120" y="500" type="line"/>
      <point x="106" y="488" type="line"/>
      <point x="74" y="230" type="line"/>
      <point x="80" y="223" type="line"/>
      <point x="173" y="205" type="line" smooth="yes"/>
      <point x="247" y="190"/>
      <point x="284" y="156"/>
      <point x="284" y="103" type="curve" smooth="yes"/>
      <point x="284" y="21"/>
      <point x="217" y="-39"/>
      <point x="116" y="-39" type="curve" smooth="yes"/>
      <point x="84" y="-39"/>
      <point x="50" y="-32"/>
      <point x="14" y="-16" type="curve"/>
      <point x="6" y="-22" type="line"/>
      <point x="4" y="-89" type="line"/>
      <point x="34" y="-94"/>
      <point x="70" y="-98"/>
      <point x="100" y="-98" type="curve" smooth="yes"/>
      <point x="245" y="-98"/>
      <point x="356" y="-6"/>
      <point x="356" y="111" type="curve" smooth="yes"/>
      <point x="356" y="191"/>
      <point x="304" y="241"/>
      <point x="200" y="263" type="curve" smooth="yes"/>
      <point x="138" y="276" type="line"/>
      <point x="159" y="436" type="line"/>
      <point x="310" y="436" type="line"/>
      <point x="381" y="431" type="line"/>
      <point x="387" y="436" type="line"/>
      <point x="401" y="496" type="line"/>
      <point x="398" y="501" type="line"/>
    </contour>
  </outline>
</glyph>
<glyph name="six" format="1">
  <advance width="468"/>
  <unicode hex="0036"/>
  <outline>
    <contour>
      <point x="388" y="594" type="line"/>
      <point x="126" y="498"/>
      <point x="42" y="317"/>
      <point x="42" y="179" type="curve" smooth="yes"/>
      <point x="42" y="66"/>
      <point x="102" y="-8"/>
      <point x="219" y="-8" type="curve"/>
      <point x="378" y="-8"/>
      <point x="420" y="121"/>
      <point x="420" y="195" type="curve" smooth="yes"/>
      <point x="420" y="282"/>
      <point x="358" y="348"/>
      <point x="267" y="348" type="curve" smooth="yes"/>
      <point x="219" y="348"/>
      <point x="180" y="331"/>
      <point x="138" y="303" type="curve"/>
      <point x="126" y="319" type="line"/>
      <point x="106" y="225" type="line"/>
      <point x="151" y="269"/>
      <point x="204" y="292"/>
      <point x="253" y="292" type="curve" smooth="yes"/>
      <point x="317" y="292"/>
      <point x="352" y="254"/>
      <point x="352" y="187" type="curve" smooth="yes"/>
      <point x="352" y="125"/>
      <point x="324" y="48"/>
      <point x="223" y="48" type="curve"/>
      <point x="135" y="48"/>
      <point x="111" y="108"/>
      <point x="111" y="185" type="curve" smooth="yes"/>
      <point x="111" y="307"/>
      <point x="164" y="460"/>
      <point x="448" y="551" type="curve"/>
      <point x="449" y="559" type="line"/>
      <point x="393" y="594" type="line"/>
    </contour>
  </outline>
</glyph>
<glyph name="less" format="1">
  <advance width="498"/>
  <unicode hex="003C"/>
  <outline>
    <contour>
      <point x="48" y="304" type="line"/>
      <point x="41" y="296" type="line"/>
      <point x="34" y="234" type="line"/>
      <point x="397" y="81" type="line"/>
      <point x="406" y="87" type="line"/>
      <point x="424" y="130" type="line"/>
      <point x="96" y="264" type="line"/>
      <point x="96" y="269" type="line"/>
      <point x="456" y="412" type="line"/>
      <point x="461" y="419" type="line"/>
      <point x="449" y="463" type="line"/>
    </contour>
  </outline>
</glyph>
<glyph name="A" format="1">
  <advance width="548"/>
  <unicode hex="0041"/>
  <outline>
    <contour>
      <point x="291" y="640" type="line"/>
      <point x="-13" y="0" type="line" smooth="yes"/>
      <point x="62" y="0" type="line"/>
      <point x="86" y="66" type="line"/>
      <point x="319" y="562" type="line"/>
      <point x="326" y="562" type="line"/>
      <point x="418" y="62" type="line"/>
      <point x="425" y="0" type="line"/>
      <point x="501" y="0" type="line"/>
      <point x="377" y="640" type="line"/>
    </contour>
    <contour>
      <point x="275" y="240" type="line"/>
      <point x="125" y="242" type="line"/>
      <point x="116" y="177" type="line"/>
      <point x="261" y="179" type="line"/>
      <point x="417" y="177" type="line"/>
      <point x="425" y="242" type="line"/>
    </contour>
    <contour>
      <point x="539" y="10" type="move" name="ogonek"/>
    </contour>
    <contour>
      <point x="329" y="640" type="move" name="top"/>
    </contour>
  </outline>
</glyph>
<glyph name="M" format="1">
  <advance width="753"/>
  <unicode hex="004D"/>
  <outline>
    <contour>
      <point x="601" y="640" type="line"/>
      <point x="559" y="549" type="line"/>
      <point x="372" y="172" type="line"/>
      <point x="365" y="172" type="line"/>
      <point x="280" y="543" type="line"/>
      <point x="260" y="640" type="line"/>
      <point x="175" y="640" type="line"/>
      <point x="31" y="0" type="line"/>
      <point x="95" y="0" type="line"/>
      <point x="137" y="201" type="line"/>
      <point x="208" y="521" type="line"/>
      <point x="215" y="521" type="line"/>
      <point x="321" y="74" type="line"/>
      <point x="384" y="74" type="line"/>
      <point x="610" y="521" type="line"/>
      <point x="616" y="521" type="line"/>
      <point x="608" y="195" type="line"/>
      <point x="597" y="0" type="line"/>
      <point x="664" y="0" type="line"/>
      <point x="686" y="640" type="line"/>
    </contour>
  </outline>
</glyph>
<glyph name="N" format="1">
  <advance width="653"/>
  <unicode hex="004E"/>
  <outline>
    <contour>
      <point x="544" y="637" type="line"/>
      <point x="480" y="120" type="line"/>
      <point x="474" y="120" type="line"/>
      <point x="223" y="640" type="line"/>
      <point x="145" y="640" type="line"/>
      <point x="91" y="190" type="line"/>
      <point x="63" y="0" type="line"/>
      <point x="133" y="0" type="line"/>
      <point x="157" y="210" type="line"/>
      <point x="196" y="520" type="line"/>
      <point x="202" y="520" type="line"/>
      <point x="454" y="0" type="line"/>
      <point x="532" y="0" type="line"/>
      <point x="553" y="187" type="line"/>
      <point x="615" y="642" type="line"/>
    </contour>
    <contour>
      <point x="300" y="0" type="move" name="bottom"/>
    </contour>
    <contour>
      <point x="379" y="640" type="move" name="top"/>
    </contour>
  </outline>
</glyph>
<glyph name="Q" format="1">
  <advance width="608"/>
  <unicode hex="0051"/>
  <outline>
    <contour>
      <point x="159" y="647"/>
      <point x="47" y="499"/>
      <point x="47" y="255" type="curve" smooth="yes"/>
      <point x="47" y="89"/>
      <point x="132" y="-8"/>
      <point x="276" y="-8" type="curve" smooth="yes"/>
      <point x="478" y="-8"/>
      <point x="590" y="145"/>
      <point x="590" y="391" type="curve" smooth="yes"/>
      <point x="590" y="554"/>
      <point x="506" y="647"/>
      <point x="360" y="647" type="curve"/>
    </contour>
    <contour>
      <point x="284" y="2" type="line"/>
      <point x="379" y="-93"/>
      <point x="501" y="-161"/>
      <point x="635" y="-191" type="curve"/>
      <point x="642" y="-189" type="line"/>
      <point x="653" y="-177"/>
      <point x="663" y="-162"/>
      <point x="674" y="-141" type="curve"/>
      <point x="673" y="-130" type="line"/>
      <point x="547" y="-108"/>
      <point x="432" y="-54"/>
      <point x="340" y="27" type="curve"/>
    </contour>
    <contour>
      <point x="458" y="584"/>
      <point x="511" y="517"/>
      <point x="511" y="382" type="curve" smooth="yes"/>
      <point x="511" y="172"/>
      <point x="435" y="55"/>
      <point x="282" y="55" type="curve" smooth="yes"/>
      <point x="177" y="55"/>
      <point x="124" y="124"/>
      <point x="124" y="260" type="curve" smooth="yes"/>
      <point x="124" y="468"/>
      <point x="197" y="584"/>
      <point x="351" y="584" type="curve" smooth="yes"/>
    </contour>
  </outline>
</glyph>
<glyph name="R" format="1">
  <advance width="529"/>
  <unicode hex="0052"/>
  <outline>
    <contour>
      <point x="145" y="640" type="line"/>
      <point x="176" y="576" type="line"/>
      <point x="304" y="580" type="line"/>
      <point x="377" y="576"/>
      <point x="416" y="542"/>
      <point x="416" y="474" type="curve" smooth="yes"/>
      <point x="416" y="385"/>
      <point x="371" y="326"/>
      <point x="288" y="301" type="curve"/>
      <point x="130" y="305" type="line"/>
      <point x="122" y="240" type="line"/>
      <point x="285" y="240" type="line"/>
      <point x="413" y="272"/>
      <point x="494" y="364"/>
      <point x="494" y="486" type="curve" smooth="yes"/>
      <point x="494" y="586"/>
      <point x="429" y="642"/>
      <point x="323" y="642" type="curve"/>
    </contour>
    <contour>
      <point x="144" y="640" type="line"/>
      <point x="91" y="193" type="line"/>
      <point x="63" y="0" type="line"/>
      <point x="138" y="0" type="line"/>
      <point x="159" y="199" type="line"/>
      <point x="219" y="640" type="line"/>
    </contour>
    <contour>
      <point x="260" y="280" type="line"/>
      <point x="297" y="184"/>
      <point x="341" y="90"/>
      <point x="388" y="-2" type="curve"/>
      <point x="397" y="-9" type="line"/>
      <point x="422" y="-6"/>
      <point x="444" y="-0"/>
      <point x="468" y="9" type="curve"/>
      <point x="469" y="18" type="line"/>
      <point x="418" y="104"/>
      <point x="371" y="192"/>
      <point x="331" y="281" type="curve"/>
    </contour>
    <contour>
      <point x="237" y="0" type="move" name="bottom"/>
    </contour>
    <contour>
      <point x="315" y="640" type="move" name="top"/>
    </contour>
  </outline>
</glyph>
<glyph name="V" format="1">
  <advance width="534"/>
  <unicode hex="0056"/>
  <outline>
    <contour>
      <point x="505" y="640" type="line"/>
      <point x="481" y="574" type="line"/>
      <point x="247" y="78" type="line"/>
      <point x="242" y="78" type="line"/>
      <point x="148" y="577" type="line"/>
      <point x="142" y="640" type="line"/>
      <point x="65" y="640" type="line"/>
      <point x="190" y="0" type="line"/>
      <point x="277" y="0" type="line"/>
      <point x="579" y="640" type="line" smooth="yes"/>
    </contour>
  </outline>
</glyph>
<glyph name="Y" format="1">
  <advance width="502"/>
  <unicode hex="0059"/>
  <outline>
    <contour>
      <point x="458" y="640" type="line"/>
      <point x="439" y="603" type="line"/>
      <point x="257" y="314" type="line"/>
      <point x="250" y="314" type="line"/>
      <point x="152" y="605" type="line"/>
      <point x="145" y="640" type="line"/>
      <point x="66" y="640" type="line"/>
      <point x="224" y="188" type="line"/>
      <point x="248" y="188" type="line"/>
      <point x="540" y="640" type="line" smooth="yes"/>
    </contour>
    <contour>
      <point x="212" y="272" type="line"/>
      <point x="203" y="187" type="line"/>
      <point x="174" y="0" type="line"/>
      <point x="249" y="0" type="line"/>
      <point x="270" y="187" type="line"/>
      <point x="283" y="272" type="line"/>
    </contour>
    <contour>
      <point x="303" y="640" type="move" name="top"/>
    </contour>
  </outline>
</glyph>
<glyph name="Z" format="1">
  <advance width="503"/>
  <unicode hex="005A"/>
  <outline>
    <contour>
      <point x="469" y="640" type="line"/>
      <point x="205" y="640" type="line"/>
      <point x="102" y="641" type="line"/>
      <point x="87" y="577" type="line"/>
      <point x="91" y="572" type="line"/>
      <point x="182" y="578" type="line"/>
      <point x="419" y="578" type="line"/>
      <point x="10" y="53" type="line"/>
      <point x="3" y="-3" type="line"/>
      <point x="57" y="0" type="line"/>
      <point x="325" y="0" type="line"/>
      <point x="434" y="-2" type="line"/>
      <point x="448" y="62" type="line"/>
      <point x="445" y="68" type="line"/>
      <point x="355" y="61" type="line"/>
      <point x="101" y="61" type="line"/>
      <point x="509" y="585" type="line"/>
      <point x="516" y="641" type="line"/>
    </contour>
    <contour>
      <point x="270" y="640" type="move" name="top"/>
    </contour>
  </outline>
</glyph>
<glyph name="bracketleft" format="1">
  <advance width="288"/>
  <unicode hex="005B"/>
  <outline>
    <contour>
      <point x="140" y="637" type="line"/>
      <point x="98" y="259" type="line"/>
      <point x="48" y="-120" type="line"/>
      <point x="222" y="-130" type="line"/>
      <point x="228" y="-125" type="line"/>
      <point x="233" y="-88" type="line"/>
      <point x="115" y="-77" type="line"/>
      <point x="197" y="594" type="line"/>
      <point x="318" y="605" type="line"/>
      <point x="322" y="641" type="line"/>
      <point x="318" y="647" type="line"/>
    </contour>
  </outline>
</glyph>
<glyph name="b" format="1">
  <advance width="441"/>
  <unicode hex="0062"/>
  <outline>
    <contour>
      <point x="315" y="465" type="line"/>
      <point x="257" y="409"/>
      <point x="203" y="337"/>
      <point x="157" y="257" type="curve"/>
      <point x="137" y="257" type="line"/>
      <point x="122" y="98" type="line"/>
      <point x="201" y="286"/>
      <point x="287" y="382"/>
      <point x="307" y="382" type="curve" smooth="yes"/>
      <point x="320" y="382"/>
      <point x="337" y="363"/>
      <point x="337" y="289" type="curve" smooth="yes"/>
      <point x="337" y="161"/>
      <point x="281" y="53"/>
      <point x="185" y="53" type="curve"/>
      <point x="99" y="77" type="line"/>
      <point x="65" y="16" type="line"/>
      <point x="165" y="-7" type="line"/>
      <point x="170" y="-7" type="line"/>
      <point x="326" y="17"/>
      <point x="404" y="168"/>
      <point x="404" y="308" type="curve" smooth="yes"/>
      <point x="404" y="387"/>
      <point x="378" y="436"/>
      <point x="329" y="465" type="curve"/>
    </contour>
    <contour>
      <point x="134" y="697" type="line"/>
      <point x="132" y="600" type="line"/>
      <point x="50" y="17" type="line"/>
      <point x="122" y="4" type="line"/>
      <point x="123" y="38" type="line"/>
      <point x="127" y="112" type="line"/>
      <point x="211" y="704" type="line"/>
    </contour>
    <contour>
      <point x="214" y="0" type="move" name="bottom"/>
    </contour>
    <contour>
      <point x="156" y="317" type="move" name="top"/>
    </contour>
  </outline>
</glyph>
<glyph name="c" format="1">
  <advance width="334"/>
  <unicode hex="0063"/>
  <outline>
    <contour>
      <point x="105" y="464"/>
      <point x="34" y="325"/>
      <point x="34" y="158" type="curve" smooth="yes"/>
      <point x="34" y="41"/>
      <point x="71" y="6"/>
      <point x="144" y="-7" type="curve"/>
      <point x="157" y="-7" type="line"/>
      <point x="215" y="10"/>
      <point x="257" y="41"/>
      <point x="300" y="113" type="curve"/>
      <point x="276" y="147" type="line"/>
      <point x="265" y="147" type="line"/>
      <point x="226" y="74"/>
      <point x="191" y="56"/>
      <point x="162" y="56" type="curve" smooth="yes"/>
      <point x="123" y="56"/>
      <point x="104" y="87"/>
      <point x="104" y="171" type="curve" smooth="yes"/>
      <point x="104" y="317"/>
      <point x="155" y="406"/>
      <point x="233" y="406" type="curve"/>
      <point x="255" y="406"/>
      <point x="274" y="399"/>
      <point x="301" y="371" type="curve"/>
      <point x="317" y="374" type="line"/>
      <point x="337" y="433" type="line"/>
      <point x="331" y="444" type="line"/>
      <point x="267" y="464" type="line"/>
    </contour>
    <contour>
      <point x="171" y="0" type="move" name="bottom"/>
    </contour>
    <contour>
      <point x="231" y="459" type="move" name="top"/>
    </contour>
  </outline>
</glyph>
<glyph name="e" format="1">
  <advance width="374"/>
  <unicode hex="0065"/>
  <outline>
    <contour>
      <point x="91" y="170" type="line"/>
      <point x="272" y="229"/>
      <point x="351" y="298"/>
      <point x="351" y="376" type="curve" smooth="yes"/>
      <point x="351" y="428"/>
      <point x="319" y="457"/>
      <point x="266" y="465" type="curve"/>
      <point x="257" y="466" type="line"/>
      <point x="124" y="461"/>
      <point x="34" y="331"/>
      <point x="34" y="154" type="curve"/>
      <point x="34" y="58"/>
      <point x="72" y="0"/>
      <point x="156" y="-7" type="curve"/>
      <point x="169" y="-7" type="line"/>
      <point x="229" y="7"/>
      <point x="280" y="48"/>
      <point x="325" y="114" type="curve"/>
      <point x="300" y="149" type="line"/>
      <point x="288" y="150" type="line"/>
      <point x="259" y="96"/>
      <point x="213" y="56"/>
      <point x="168" y="56" type="curve" smooth="yes"/>
      <point x="125" y="56"/>
      <point x="105" y="92"/>
      <point x="105" y="176" type="curve" smooth="yes"/>
      <point x="105" y="316"/>
      <point x="161" y="412"/>
      <point x="238" y="412" type="curve" smooth="yes"/>
      <point x="270" y="412"/>
      <point x="284" y="396"/>
      <point x="284" y="371" type="curve" smooth="yes"/>
      <point x="284" y="314"/>
      <point x="217" y="263"/>
      <point x="91" y="225" type="curve"/>
    </contour>
    <contour>
      <point x="168" y="0" type="move" name="bottom"/>
    </contour>
    <contour>
      <point x="305" y="10" type="move" name="ogonek"/>
    </contour>
    <contour>
      <point x="235" y="459" type="move" name="top"/>
    </contour>
  </outline>
</glyph>
<glyph name="g" format="1">
  <advance width="441"/>
  <unicode hex="0067"/>
  <outline>
    <contour>
      <point x="319" y="433" type="line"/>
      <point x="315" y="359" type="line"/>
      <point x="267" y="18" type="line" smooth="yes"/>
      <point x="253" y="-87"/>
      <point x="194" y="-141"/>
      <point x="120" y="-141" type="curve" smooth="yes"/>
      <point x="60" y="-141"/>
      <point x="25" y="-102"/>
      <point x="24" y="-69" type="curve"/>
      <point x="24" y="-62"/>
      <point x="26" y="-58"/>
      <point x="34" y="-52" type="curve" smooth="yes"/>
      <point x="136" y="24" type="line"/>
      <point x="90" y="59" type="line"/>
      <point x="88" y="38" type="line"/>
      <point x="-52" y="-50" type="line"/>
      <point x="-56" y="-58" type="line"/>
      <point x="-40" y="-148"/>
      <point x="19" y="-198"/>
      <point x="104" y="-198" type="curve" smooth="yes"/>
      <point x="218" y="-198"/>
      <point x="315" y="-112"/>
      <point x="336" y="38" type="curve" smooth="yes"/>
      <point x="344" y="113" type="line"/>
      <point x="393" y="460" type="line"/>
      <point x="383" y="466" type="line"/>
    </contour>
    <contour>
      <point x="269" y="464" type="line"/>
      <point x="123" y="441"/>
      <point x="48" y="307"/>
      <point x="48" y="166" type="curve" smooth="yes"/>
      <point x="48" y="88"/>
      <point x="72" y="48"/>
      <point x="124" y="24" type="curve"/>
      <point x="135" y="24" type="line"/>
      <point x="190" y="68"/>
      <point x="239" y="133"/>
      <point x="283" y="210" type="curve"/>
      <point x="304" y="210" type="line"/>
      <point x="321" y="365" type="line"/>
      <point x="242" y="192"/>
      <point x="162" y="94"/>
      <point x="143" y="94" type="curve" smooth="yes"/>
      <point x="134" y="94"/>
      <point x="115" y="118"/>
      <point x="115" y="191" type="curve" smooth="yes"/>
      <point x="115" y="307"/>
      <point x="163" y="404"/>
      <point x="255" y="404" type="curve"/>
      <point x="339" y="373" type="line"/>
      <point x="371" y="429" type="line"/>
      <point x="274" y="464" type="line"/>
    </contour>
    <contour>
      <point x="255" y="458" type="move" name="top"/>
    </contour>
  </outline>
</glyph>
<glyph name="h" format="1">
  <advance width="469"/>
  <unicode hex="0068"/>
  <outline>
    <contour>
      <point x="328" y="465" type="line"/>
      <point x="270" y="419"/>
      <point x="219" y="350"/>
      <point x="154" y="238" type="curve"/>
      <point x="139" y="238" type="line"/>
      <point x="119" y="85" type="line"/>
      <point x="212" y="282"/>
      <point x="288" y="382"/>
      <point x="326" y="382" type="curve" smooth="yes"/>
      <point x="341" y="382"/>
      <point x="347" y="370"/>
      <point x="347" y="351" type="curve"/>
      <point x="346" y="338" type="line"/>
      <point x="291" y="-4" type="line"/>
      <point x="368" y="3" type="line"/>
      <point x="374" y="108" type="line"/>
      <point x="415" y="365" type="line"/>
      <point x="416" y="378" type="line"/>
      <point x="418" y="425"/>
      <point x="383" y="455"/>
      <point x="339" y="465" type="curve"/>
    </contour>
    <contour>
      <point x="134" y="697" type="line"/>
      <point x="132" y="600" type="line"/>
      <point x="46" y="-4" type="line"/>
      <point x="122" y="3" type="line"/>
      <point x="127" y="109" type="line"/>
      <point x="210" y="704" type="line"/>
    </contour>
    <contour>
      <point x="266" y="229" type="move" name="center"/>
    </contour>
    <contour>
      <point x="169" y="700" type="move" name="top"/>
    </contour>
  </outline>
</glyph>
<glyph name="m" format="1">
  <advance width="717"/>
  <unicode hex="006D"/>
  <outline>
    <contour>
      <point x="576" y="465" type="line"/>
      <point x="518" y="419"/>
      <point x="467" y="350"/>
      <point x="402" y="238" type="curve"/>
      <point x="387" y="238" type="line"/>
      <point x="367" y="85" type="line"/>
      <point x="460" y="282"/>
      <point x="536" y="382"/>
      <point x="574" y="382" type="curve" smooth="yes"/>
      <point x="589" y="382"/>
      <point x="595" y="370"/>
      <point x="595" y="351" type="curve"/>
      <point x="594" y="338" type="line"/>
      <point x="539" y="-4" type="line"/>
      <point x="616" y="3" type="line"/>
      <point x="622" y="108" type="line"/>
      <point x="663" y="365" type="line"/>
      <point x="664" y="378" type="line"/>
      <point x="666" y="425"/>
      <point x="631" y="455"/>
      <point x="587" y="465" type="curve"/>
    </contour>
    <contour>
      <point x="101" y="456" type="line"/>
      <point x="96" y="359" type="line"/>
      <point x="44" y="-4" type="line"/>
      <point x="120" y="3" type="line"/>
      <point x="125" y="109" type="line"/>
      <point x="174" y="463" type="line"/>
    </contour>
    <contour>
      <point x="326" y="465" type="line"/>
      <point x="267" y="419"/>
      <point x="217" y="350"/>
      <point x="152" y="238" type="curve"/>
      <point x="137" y="238" type="line"/>
      <point x="117" y="85" type="line"/>
      <point x="210" y="282"/>
      <point x="286" y="382"/>
      <point x="324" y="382" type="curve" smooth="yes"/>
      <point x="339" y="382"/>
      <point x="345" y="370"/>
      <point x="345" y="351" type="curve"/>
      <point x="344" y="338" type="line"/>
      <point x="289" y="-4" type="line"/>
      <point x="366" y="3" type="line"/>
      <point x="372" y="108" type="line"/>
      <point x="413" y="365" type="line"/>
      <point x="414" y="378" type="line"/>
      <point x="416" y="425"/>
      <point x="381" y="455"/>
      <point x="337" y="465" type="curve"/>
    </contour>
    <contour>
      <point x="193" y="0" type="move" name="bottom"/>
    </contour>
    <contour>
      <point x="197" y="10" type="move" name="ogonek"/>
    </contour>
    <contour>
      <point x="136" y="458" type="move" name="top"/>
    </contour>
  </outline>
</glyph>
<glyph name="o" format="1">
  <advance width="411"/>
  <unicode hex="006F"/>
  <outline>
    <contour>
      <point x="120" y="458"/>
      <point x="36" y="329"/>
      <point x="36" y="149" type="curve" smooth="yes"/>
      <point x="36" y="51"/>
      <point x="74" y="6"/>
      <point x="148" y="-8" type="curve"/>
      <point x="156" y="-9" type="line"/>
      <point x="295" y="3"/>
      <point x="375" y="130"/>
      <point x="375" y="314" type="curve" smooth="yes"/>
      <point x="375" y="407"/>
      <point x="338" y="454"/>
      <point x="266" y="466" type="curve"/>
      <point x="258" y="466" type="line"/>
    </contour>
    <contour>
      <point x="287" y="405"/>
      <point x="305" y="377"/>
      <point x="305" y="309" type="curve" smooth="yes"/>
      <point x="305" y="156"/>
      <point x="257" y="51"/>
      <point x="167" y="51" type="curve" smooth="yes"/>
      <point x="122" y="51"/>
      <point x="105" y="81"/>
      <point x="105" y="150" type="curve" smooth="yes"/>
      <point x="105" y="303"/>
      <point x="153" y="405"/>
      <point x="245" y="405" type="curve" smooth="yes"/>
    </contour>
    <contour>
      <point x="244" y="458" type="move" name="top"/>
    </contour>
  </outline>
</glyph>
<glyph name="p" format="1">
  <advance width="437"/>
  <unicode hex="0070"/>
  <outline>
    <contour>
      <point x="315" y="465" type="line"/>
      <point x="257" y="409"/>
      <point x="203" y="337"/>
      <point x="157" y="257" type="curve"/>
      <point x="137" y="257" type="line"/>
      <point x="122" y="98" type="line"/>
      <point x="201" y="286"/>
      <point x="287" y="382"/>
      <point x="307" y="382" type="curve" smooth="yes"/>
      <point x="320" y="382"/>
      <point x="337" y="363"/>
      <point x="337" y="289" type="curve" smooth="yes"/>
      <point x="337" y="161"/>
      <point x="281" y="53"/>
      <point x="185" y="53" type="curve"/>
      <point x="99" y="77" type="line"/>
      <point x="65" y="16" type="line"/>
      <point x="165" y="-7" type="line"/>
      <point x="170" y="-7" type="line"/>
      <point x="326" y="17"/>
      <point x="405" y="168"/>
      <point x="405" y="308" type="curve" smooth="yes"/>
      <point x="405" y="387"/>
      <point x="378" y="436"/>
      <point x="330" y="465" type="curve"/>
    </contour>
    <contour>
      <point x="102" y="456" type="line"/>
      <point x="98" y="359" type="line"/>
      <point x="20" y="-192" type="line"/>
      <point x="96" y="-185" type="line"/>
      <point x="101" y="-76" type="line"/>
      <point x="176" y="463" type="line"/>
    </contour>
    <contour>
      <point x="224" y="0" type="move" name="bottom"/>
    </contour>
    <contour>
      <point x="162" y="328" type="move" name="top"/>
    </contour>
  </outline>
</glyph>
<glyph name="q" format="1">
  <advance width="438"/>
  <unicode hex="0071"/>
  <outline>
    <contour>
      <point x="266" y="465" type="line"/>
      <point x="110" y="441"/>
      <point x="32" y="289"/>
      <point x="32" y="150" type="curve" smooth="yes"/>
      <point x="32" y="70"/>
      <point x="58" y="21"/>
      <point x="107" y="-7" type="curve"/>
      <point x="122" y="-7" type="line"/>
      <point x="179" y="48"/>
      <point x="233" y="120"/>
      <point x="279" y="201" type="curve"/>
      <point x="299" y="201" type="line"/>
      <point x="314" y="359" type="line"/>
      <point x="235" y="170"/>
      <point x="149" y="75"/>
      <point x="129" y="75" type="curve" smooth="yes"/>
      <point x="116" y="75"/>
      <point x="99" y="95"/>
      <point x="99" y="169" type="curve" smooth="yes"/>
      <point x="99" y="297"/>
      <point x="156" y="404"/>
      <point x="251" y="404" type="curve"/>
      <point x="337" y="373" type="line"/>
      <point x="365" y="431" type="line"/>
      <point x="271" y="465" type="line"/>
    </contour>
    <contour>
      <point x="316" y="434" type="line"/>
      <point x="312" y="358" type="line"/>
      <point x="234" y="-192" type="line"/>
      <point x="310" y="-185" type="line"/>
      <point x="315" y="-78" type="line"/>
      <point x="390" y="460" type="line"/>
      <point x="381" y="466" type="line"/>
    </contour>
  </outline>
</glyph>
<glyph name="r" format="1">
  <advance width="328"/>
  <unicode hex="0072"/>
  <outline>
    <contour>
      <point x="253" y="409"/>
      <point x="200" y="337"/>
      <point x="154" y="243" type="curve"/>
      <point x="136" y="243" type="line"/>
      <point x="118" y="69" type="line"/>
      <point x="202" y="286"/>
      <point x="257" y="349"/>
      <point x="320" y="358" type="curve"/>
      <point x="329" y="357" type="line"/>
      <point x="335" y="360" type="line"/>
      <point x="350" y="460" type="line"/>
      <point x="325" y="462" type="line"/>
    </contour>
    <contour>
      <point x="103" y="456" type="line"/>
      <point x="98" y="359" type="line"/>
      <point x="46" y="-4" type="line"/>
      <point x="122" y="3" type="line"/>
      <point x="127" y="109" type="line"/>
      <point x="176" y="463" type="line"/>
    </contour>
    <contour>
      <point x="87" y="0" type="move" name="bottom"/>
    </contour>
    <contour>
      <point x="229" y="458" type="move" name="top"/>
    </contour>
  </outline>
</glyph>
<glyph name="t" format="1">
  <advance width="324"/>
  <unicode hex="0074"/>
  <outline>
    <contour>
      <point x="142" y="558" type="line"/>
      <point x="121" y="360" type="line"/>
      <point x="77" y="96" type="line"/>
      <point x="76" y="80" type="line"/>
      <point x="75" y="31"/>
      <point x="108" y="3"/>
      <point x="155" y="-5" type="curve"/>
      <point x="166" y="-5" type="line"/>
      <point x="211" y="18"/>
      <point x="251" y="55"/>
      <point x="296" y="113" type="curve"/>
      <point x="274" y="144" type="line"/>
      <point x="262" y="145" type="line"/>
      <point x="227" y="94"/>
      <point x="196" y="68"/>
      <point x="172" y="68" type="curve" smooth="yes"/>
      <point x="153" y="68"/>
      <point x="144" y="79"/>
      <point x="144" y="101" type="curve"/>
      <point x="146" y="119" type="line"/>
      <point x="221" y="585" type="line"/>
      <point x="213" y="590" type="line"/>
    </contour>
    <contour>
      <point x="60" y="450" type="line"/>
      <point x="54" y="405" type="line"/>
      <point x="60" y="400" type="line"/>
      <point x="323" y="400" type="line"/>
      <point x="329" y="442" type="line"/>
      <point x="322" y="450" type="line"/>
    </contour>
    <contour>
      <point x="173" y="0" type="move" name="bottom"/>
    </contour>
    <contour>
      <point x="164" y="229" type="move" name="center"/>
    </contour>
  </outline>
</glyph>
<glyph name="v" format="1">
  <advance width="407"/>
  <unicode hex="0076"/>
  <outline>
    <contour>
      <point x="305" y="447" type="line"/>
      <point x="302" y="437" type="line"/>
      <point x="318" y="415"/>
      <point x="326" y="394"/>
      <point x="326" y="370" type="curve" smooth="yes"/>
      <point x="326" y="342"/>
      <point x="315" y="312"/>
      <point x="294" y="276" type="curve" smooth="yes"/>
      <point x="181" y="80" type="line"/>
      <point x="175" y="80" type="line"/>
      <point x="150" y="383" type="line"/>
      <point x="146" y="463" type="line"/>
      <point x="72" y="456" type="line"/>
      <point x="122" y="0" type="line"/>
      <point x="203" y="0" type="line"/>
      <point x="354" y="255" type="line" smooth="yes"/>
      <point x="382" y="303"/>
      <point x="397" y="344"/>
      <point x="397" y="383" type="curve" smooth="yes"/>
      <point x="397" y="410"/>
      <point x="390" y="437"/>
      <point x="374" y="463" type="curve"/>
    </contour>
  </outline>
</glyph>
<glyph name="x" format="1">
  <advance width="439"/>
  <unicode hex="0078"/>
  <outline>
    <contour>
      <point x="436" y="459" type="line"/>
      <point x="356" y="459" type="line"/>
      <point x="332" y="419" type="line"/>
      <point x="230" y="286" type="line"/>
      <point x="163" y="424" type="line"/>
      <point x="149" y="464" type="line"/>
      <point x="71" y="455" type="line"/>
      <point x="174" y="237" type="line"/>
      <point x="-1" y="0" type="line"/>
      <point x="82" y="0" type="line"/>
      <point x="105" y="43" type="line"/>
      <point x="215" y="187" type="line"/>
      <point x="284" y="44" type="line"/>
      <point x="300" y="-6" type="line"/>
      <point x="381" y="4" type="line"/>
      <point x="266" y="232" type="line"/>
    </contour>
  </outline>
</glyph>
<glyph name="y" format="1">
  <advance width="407"/>
  <unicode hex="0079"/>
  <outline>
    <contour>
      <point x="306" y="447" type="line"/>
      <point x="303" y="437" type="line"/>
      <point x="319" y="415"/>
      <point x="327" y="394"/>
      <point x="327" y="370" type="curve" smooth="yes"/>
      <point x="327" y="338"/>
      <point x="314" y="303"/>
      <point x="291" y="260" type="curve" smooth="yes"/>
      <point x="171" y="33" type="line" smooth="yes"/>
      <point x="108" y="-77"/>
      <point x="42" y="-124"/>
      <point x="-22" y="-124" type="curve" smooth="yes"/>
      <point x="-43" y="-124"/>
      <point x="-68" y="-119"/>
      <point x="-95" y="-109" type="curve"/>
      <point x="-103" y="-115" type="line"/>
      <point x="-99" y="-179" type="line"/>
      <point x="-73" y="-190"/>
      <point x="-46" y="-195"/>
      <point x="-21" y="-195" type="curve" smooth="yes"/>
      <point x="66" y="-195"/>
      <point x="139" y="-134"/>
      <point x="234" y="32" type="curve" smooth="yes"/>
      <point x="349" y="235" type="line" smooth="yes"/>
      <point x="380" y="290"/>
      <point x="398" y="338"/>
      <point x="398" y="383" type="curve" smooth="yes"/>
      <point x="398" y="410"/>
      <point x="391" y="437"/>
      <point x="375" y="463" type="curve"/>
    </contour>
    <contour>
      <point x="56" y="456" type="line"/>
      <point x="151" y="-34" type="line"/>
      <point x="232" y="89" type="line"/>
      <point x="188" y="89" type="line"/>
      <point x="141" y="383" type="line"/>
      <point x="129" y="463" type="line"/>
    </contour>
    <contour>
      <point x="207" y="458" type="move" name="top"/>
    </contour>
  </outline>
</glyph>
<glyph name="z" format="1">
  <advance width="407"/>
  <unicode hex="007A"/>
  <outline>
    <contour>
      <point x="336" y="459" type="line"/>
      <point x="146" y="460" type="line"/>
      <point x="81" y="465" type="line"/>
      <point x="74" y="460" type="line"/>
      <point x="59" y="393" type="line"/>
      <point x="66" y="387" type="line"/>
      <point x="135" y="395" type="line"/>
      <point x="273" y="396" type="line"/>
      <point x="-12" y="16" type="line"/>
      <point x="11" y="-6" type="line"/>
      <point x="19" y="-6" type="line"/>
      <point x="41" y="16"/>
      <point x="58" y="23"/>
      <point x="81" y="23" type="curve" smooth="yes"/>
      <point x="126" y="23"/>
      <point x="176" y="-10"/>
      <point x="229" y="-10" type="curve" smooth="yes"/>
      <point x="310" y="-10"/>
      <point x="361" y="49"/>
      <point x="366" y="172" type="curve"/>
      <point x="330" y="192" type="line"/>
      <point x="318" y="186" type="line"/>
      <point x="314" y="93"/>
      <point x="288" y="60"/>
      <point x="230" y="60" type="curve" smooth="yes"/>
      <point x="200" y="60"/>
      <point x="161" y="83"/>
      <point x="130" y="83" type="curve"/>
      <point x="100" y="76" type="line"/>
      <point x="384" y="451" type="line"/>
      <point x="360" y="473" type="line"/>
    </contour>
    <contour>
      <point x="233" y="458" type="move" name="top"/>
    </contour>
  </outline>
</glyph>
<glyph name="braceleft" format="1">
  <advance width="288"/>
  <unicode hex="007B"/>
  <outline>
    <contour>
      <point x="181" y="655"/>
      <point x="135" y="608"/>
      <point x="135" y="502" type="curve" smooth="yes"/>
      <point x="135" y="471"/>
      <point x="138" y="425"/>
      <point x="138" y="396" type="curve" smooth="yes"/>
      <point x="138" y="325"/>
      <point x="109" y="291"/>
      <point x="44" y="280" type="curve"/>
      <point x="39" y="241" type="line"/>
      <point x="88" y="232"/>
      <point x="111" y="207"/>
      <point x="111" y="166" type="curve" smooth="yes"/>
      <point x="111" y="115"/>
      <point x="68" y="27"/>
      <point x="68" y="-40" type="curve" smooth="yes"/>
      <point x="68" y="-101"/>
      <point x="102" y="-134"/>
      <point x="168" y="-134" type="curve" smooth="yes"/>
      <point x="187" y="-134"/>
      <point x="203" y="-132"/>
      <point x="220" y="-127" type="curve"/>
      <point x="225" y="-121" type="line"/>
      <point x="222" y="-80" type="line"/>
      <point x="207" y="-83"/>
      <point x="197" y="-85"/>
      <point x="184" y="-85" type="curve" smooth="yes"/>
      <point x="147" y="-85"/>
      <point x="129" y="-66"/>
      <point x="129" y="-25" type="curve" smooth="yes"/>
      <point x="129" y="33"/>
      <point x="173" y="116"/>
      <point x="173" y="170" type="curve" smooth="yes"/>
      <point x="173" y="211"/>
      <point x="154" y="242"/>
      <point x="117" y="259" type="curve"/>
      <point x="118" y="262" type="line"/>
      <point x="170" y="284"/>
      <point x="199" y="324"/>
      <point x="199" y="390" type="curve" smooth="yes"/>
      <point x="199" y="420"/>
      <point x="195" y="468"/>
      <point x="195" y="501" type="curve" smooth="yes"/>
      <point x="195" y="575"/>
      <point x="219" y="605"/>
      <point x="269" y="605" type="curve" smooth="yes"/>
      <point x="282" y="605"/>
      <point x="292" y="603"/>
      <point x="305" y="600" type="curve"/>
      <point x="318" y="642" type="line"/>
      <point x="315" y="648" type="line"/>
      <point x="299" y="652"/>
      <point x="285" y="655"/>
      <point x="266" y="655" type="curve" smooth="yes"/>
    </contour>
  </outline>
</glyph>
<glyph name="currency" format="1">
  <advance width="436"/>
  <unicode hex="00A4"/>
  <outline>
    <contour>
      <point x="396" y="543" type="line"/>
      <point x="325" y="476" type="line"/>
      <point x="306" y="492"/>
      <point x="279" y="501"/>
      <point x="251" y="501" type="curve" smooth="yes"/>
      <point x="222" y="501"/>
      <point x="192" y="492"/>
      <point x="168" y="474" type="curve"/>
      <point x="112" y="542" type="line"/>
      <point x="104" y="542" type="line"/>
      <point x="67" y="509" type="line"/>
      <point x="66" y="500" type="line"/>
      <point x="127" y="438" type="line"/>
      <point x="104" y="411"/>
      <point x="89" y="381"/>
      <point x="89" y="346" type="curve" smooth="yes"/>
      <point x="89" y="321"/>
      <point x="95" y="296"/>
      <point x="108" y="278" type="curve"/>
      <point x="34" y="216" type="line"/>
      <point x="31" y="207" type="line"/>
      <point x="62" y="175" type="line"/>
      <point x="70" y="174" type="line"/>
      <point x="141" y="242" type="line"/>
      <point x="160" y="226"/>
      <point x="187" y="215"/>
      <point x="216" y="215" type="curve" smooth="yes"/>
      <point x="245" y="215"/>
      <point x="275" y="226"/>
      <point x="299" y="243" type="curve"/>
      <point x="354" y="176" type="line"/>
      <point x="363" y="175" type="line"/>
      <point x="400" y="210" type="line"/>
      <point x="400" y="218" type="line"/>
      <point x="340" y="281" type="line"/>
      <point x="363" y="306"/>
      <point x="377" y="338"/>
      <point x="377" y="372" type="curve" smooth="yes"/>
      <point x="377" y="397"/>
      <point x="370" y="421"/>
      <point x="359" y="439" type="curve"/>
      <point x="433" y="502" type="line"/>
      <point x="434" y="511" type="line"/>
      <point x="405" y="543" type="line"/>
    </contour>
    <contour>
      <point x="297" y="457"/>
      <point x="333" y="419"/>
      <point x="333" y="369" type="curve" smooth="yes"/>
      <point x="333" y="308"/>
      <point x="282" y="260"/>
      <point x="221" y="260" type="curve" smooth="yes"/>
      <point x="170" y="260"/>
      <point x="134" y="298"/>
      <point x="134" y="348" type="curve" smooth="yes"/>
      <point x="134" y="408"/>
      <point x="186" y="457"/>
      <point x="245" y="457" type="curve" smooth="yes"/>
    </contour>
  </outline>
</glyph>
<glyph name="dieresis" format="1">
  <advance width="390"/>
  <unicode hex="00A8"/>
  <outline>
    <contour>
      <point x="136" y="649"/>
      <point x="120" y="632"/>
      <point x="120" y="605" type="curve" smooth="yes"/>
      <point x="120" y="579"/>
      <point x="135" y="563"/>
      <point x="161" y="563" type="curve" smooth="yes"/>
      <point x="186" y="563"/>
      <point x="203" y="581"/>
      <point x="203" y="608" type="curve" smooth="yes"/>
      <point x="203" y="632"/>
      <point x="188" y="649"/>
      <point x="164" y="649" type="curve" smooth="yes"/>
    </contour>
    <contour>
      <point x="295" y="648"/>
      <point x="279" y="631"/>
      <point x="279" y="604" type="curve" smooth="yes"/>
      <point x="279" y="578"/>
      <point x="294" y="563"/>
      <point x="320" y="563" type="curve" smooth="yes"/>
      <point x="345" y="563"/>
      <point x="362" y="580"/>
      <point x="362" y="607" type="curve" smooth="yes"/>
      <point x="362" y="632"/>
      <point x="347" y="648"/>
      <point x="323" y="648" type="curve" smooth="yes"/>
    </contour>
    <contour>
      <point x="223" y="458" type="move" name="_top"/>
    </contour>
  </outline>
</glyph>
<glyph name="registered" format="1">
  <advance width="439"/>
  <unicode hex="00AE"/>
  <outline>
    <contour>
      <point x="111" y="702"/>
      <point x="38" y="630"/>
      <point x="38" y="522" type="curve" smooth="yes"/>
      <point x="38" y="412"/>
      <point x="111" y="340"/>
      <point x="219" y="340" type="curve" smooth="yes"/>
      <point x="329" y="340"/>
      <point x="400" y="412"/>
      <point x="400" y="522" type="curve" smooth="yes"/>
      <point x="400" y="630"/>
      <point x="329" y="702"/>
      <point x="219" y="702" type="curve" smooth="yes"/>
    </contour>
    <contour>
      <point x="155" y="625" type="line"/>
      <point x="156" y="489" type="line"/>
      <point x="155" y="431" type="line"/>
      <point x="190" y="431" type="line"/>
      <point x="188" y="493" type="line"/>
      <point x="190" y="625" type="line"/>
    </contour>
    <contour>
      <point x="212" y="516" type="line"/>
      <point x="228" y="488"/>
      <point x="244" y="459"/>
      <point x="265" y="431" type="curve"/>
      <point x="269" y="428" type="line"/>
      <point x="280" y="429"/>
      <point x="293" y="431"/>
      <point x="302" y="435" type="curve"/>
      <point x="303" y="438" type="line"/>
      <point x="282" y="464"/>
      <point x="263" y="490"/>
      <point x="246" y="516" type="curve"/>
    </contour>
    <contour>
      <point x="314" y="676"/>
      <point x="376" y="615"/>
      <point x="376" y="522" type="curve" smooth="yes"/>
      <point x="376" y="428"/>
      <point x="314" y="365"/>
      <point x="220" y="365" type="curve" smooth="yes"/>
      <point x="127" y="365"/>
      <point x="65" y="428"/>
      <point x="65" y="522" type="curve" smooth="yes"/>
      <point x="65" y="615"/>
      <point x="127" y="676"/>
      <point x="220" y="676" type="curve" smooth="yes"/>
    </contour>
    <contour>
      <point x="155" y="625" type="line"/>
      <point x="175" y="597" type="line"/>
      <point x="216" y="598" type="line"/>
      <point x="242" y="597"/>
      <point x="255" y="586"/>
      <point x="255" y="564" type="curve" smooth="yes"/>
      <point x="255" y="545"/>
      <point x="245" y="534"/>
      <point x="224" y="527" type="curve"/>
      <point x="168" y="530" type="line"/>
      <point x="168" y="500" type="line"/>
      <point x="225" y="500" type="line"/>
      <point x="267" y="508"/>
      <point x="291" y="535"/>
      <point x="291" y="567" type="curve" smooth="yes"/>
      <point x="291" y="605"/>
      <point x="268" y="625"/>
      <point x="227" y="625" type="curve"/>
    </contour>
  </outline>
</glyph>
<glyph name="acute" format="1">
  <advance width="390"/>
  <unicode hex="00B4"/>
  <outline>
    <contour>
      <point x="247" y="640"/>
      <point x="195" y="595"/>
      <point x="141" y="550" type="curve"/>
      <point x="162" y="520" type="line"/>
      <point x="170" y="519" type="line"/>
      <point x="227" y="559"/>
      <point x="281" y="600"/>
      <point x="339" y="646" type="curve"/>
      <point x="341" y="655" type="line"/>
      <point x="312" y="694" type="line"/>
      <point x="304" y="695" type="line"/>
    </contour>
    <contour>
      <point x="221" y="458" type="move" name="_top"/>
    </contour>
  </outline>
</glyph>
<glyph name="multiply" format="1">
  <advance width="481"/>
  <unicode hex="00D7"/>
  <outline>
    <contour>
      <point x="249" y="303" type="line"/>
      <point x="138" y="429" type="line"/>
      <point x="99" y="399" type="line"/>
      <point x="98" y="390" type="line"/>
      <point x="208" y="266" type="line"/>
      <point x="67" y="140" type="line"/>
      <point x="66" y="133" type="line"/>
      <point x="98" y="102" type="line"/>
      <point x="240" y="227" type="line"/>
      <point x="350" y="102" type="line"/>
      <point x="390" y="133" type="line"/>
      <point x="391" y="141" type="line"/>
      <point x="283" y="266" type="line"/>
      <point x="422" y="390" type="line"/>
      <point x="423" y="399" type="line"/>
      <point x="390" y="429" type="line"/>
    </contour>
  </outline>
</glyph>
<glyph name="Oslash" format="1">
  <advance width="612"/>
  <unicode hex="00D8"/>
  <outline>
    <contour>
      <point x="516" y="722" type="line"/>
      <point x="61" y="-77" type="line"/>
      <point x="64" y="-85" type="line"/>
      <point x="107" y="-101" type="line"/>
      <point x="562" y="697" type="line"/>
      <point x="559" y="706" type="line"/>
    </contour>
    <component base="O"/>
  </outline>
</glyph>
<glyph name="germandbls" format="1">
  <advance width="550"/>
  <unicode hex="00DF"/>
  <outline>
    <contour>
      <point x="234" y="704"/>
      <point x="163" y="641"/>
      <point x="148" y="528" type="curve" smooth="yes"/>
      <point x="102" y="190" type="line"/>
      <point x="58" y="-127" type="line"/>
      <point x="133" y="-121" type="line"/>
      <point x="138" y="-14" type="line"/>
      <point x="168" y="199" type="line"/>
      <point x="215" y="546" type="line" smooth="yes"/>
      <point x="226" y="612"/>
      <point x="273" y="645"/>
      <point x="338" y="645" type="curve" smooth="yes"/>
      <point x="393" y="645"/>
      <point x="423" y="622"/>
      <point x="423" y="574" type="curve" smooth="yes"/>
      <point x="423" y="477"/>
      <point x="298" y="463"/>
      <point x="298" y="339" type="curve" smooth="yes"/>
      <point x="297" y="225"/>
      <point x="443" y="200"/>
      <point x="443" y="118" type="curve" smooth="yes"/>
      <point x="443" y="76"/>
      <point x="408" y="43"/>
      <point x="362" y="43" type="curve" smooth="yes"/>
      <point x="325" y="43"/>
      <point x="290" y="63"/>
      <point x="262" y="98" type="curve"/>
      <point x="252" y="93" type="line"/>
      <point x="236" y="26" type="line"/>
      <point x="265" y="9"/>
      <point x="300" y="-4"/>
      <point x="339" y="-8" type="curve"/>
      <point x="438" y="-7"/>
      <point x="508" y="54"/>
      <point x="508" y="132" type="curve" smooth="yes"/>
      <point x="508" y="247"/>
      <point x="363" y="275"/>
      <point x="363" y="352" type="curve" smooth="yes"/>
      <point x="363" y="441"/>
      <point x="491" y="460"/>
      <point x="491" y="583" type="curve" smooth="yes"/>
      <point x="491" y="661"/>
      <point x="436" y="704"/>
      <point x="344" y="704" type="curve" smooth="yes"/>
    </contour>
    <contour>
      <point x="63" y="450" type="line"/>
      <point x="56" y="405" type="line"/>
      <point x="61" y="400" type="line"/>
      <point x="163" y="400" type="line"/>
      <point x="171" y="442" type="line"/>
      <point x="164" y="450" type="line"/>
    </contour>
  </outline>
</glyph>
<glyph name="oslash" format="1">
  <advance width="411"/>
  <unicode hex="00F8"/>
  <outline>
    <contour>
      <point x="335" y="549" type="line"/>
      <point x="22" y="-89" type="line"/>
      <point x="25" y="-96" type="line"/>
      <point x="67" y="-115" type="line"/>
      <point x="378" y="523" type="line"/>
      <point x="373" y="531" type="line"/>
    </contour>
    <component base="o"/>
    <contour>
      <point x="245" y="458" type="move" name="top"/>
    </contour>
  </outline>
</glyph>
<glyph name="Aogonek" format="1">
  <advance width="548"/>
  <unicode hex="0104"/>
  <outline>
    <contour>
      <point x="424" y="0" type="line"/>
      <point x="360" y="-75"/>
      <point x="347" y="-104"/>
      <point x="347" y="-133" type="curve" smooth="yes"/>
      <point x="347" y="-173"/>
      <point x="375" y="-196"/>
      <point x="411" y="-196" type="curve" smooth="yes"/>
      <point x="442" y="-196"/>
      <point x="470" y="-177"/>
      <point x="495" y="-145" type="curve"/>
      <point x="491" y="-101" type="line"/>
      <point x="487" y="-101" type="line"/>
      <point x="465" y="-128"/>
      <point x="446" y="-144"/>
      <point x="424" y="-144" type="curve" smooth="yes"/>
      <point x="411" y="-144"/>
      <point x="400" y="-138"/>
      <point x="400" y="-117" type="curve" smooth="yes"/>
      <point x="400" y="-93"/>
      <point x="415" y="-66"/>
      <point x="482" y="1" type="curve"/>
    </contour>
    <component base="A"/>
  </outline>
</glyph>
<glyph name="aogonek" format="1">
  <advance width="448"/>
  <unicode hex="0105"/>
  <outline>
    <contour>
      <point x="278" y="16" type="line"/>
      <point x="203" y="-63"/>
      <point x="183" y="-93"/>
      <point x="183" y="-127" type="curve" smooth="yes"/>
      <point x="183" y="-170"/>
      <point x="214" y="-197"/>
      <point x="253" y="-197" type="curve" smooth="yes"/>
      <point x="287" y="-197"/>
      <point x="314" y="-177"/>
      <point x="340" y="-148" type="curve"/>
      <point x="326" y="-108" type="line"/>
      <point x="323" y="-108" type="line"/>
      <point x="305" y="-133"/>
      <point x="284" y="-145"/>
      <point x="265" y="-145" type="curve" smooth="yes"/>
      <point x="247" y="-145"/>
      <point x="233" y="-137"/>
      <point x="233" y="-116" type="curve" smooth="yes"/>
      <point x="233" y="-93"/>
      <point x="250" y="-68"/>
      <point x="324" y="12" type="curve"/>
    </contour>
    <component base="a"/>
  </outline>
</glyph>
<glyph name="hbar" format="1">
  <advance width="529"/>
  <unicode hex="0127"/>
  <outline>
    <contour>
      <point x="92" y="603" type="line"/>
      <point x="88" y="562" type="line"/>
      <point x="94" y="557" type="line"/>
      <point x="360" y="557" type="line"/>
      <point x="363" y="596" type="line"/>
      <point x="357" y="603" type="line"/>
    </contour>
    <component base="h" xOffset="41"/>
  </outline>
</glyph>
<glyph name="lcaron" format="1">
  <advance width="246"/>
  <unicode hex="013E"/>
  <outline>
    <contour>
      <point x="189" y="139" type="move"/>
    </contour>
    <component base="l"/>
    <component base="caron.alt" xOffset="39" yOffset="-41"/>
  </outline>
</glyph>
<glyph name="eng" format="1">
  <advance width="474"/>
  <unicode hex="014B"/>
  <outline>
    <contour>
      <point x="181" y="76" type="move"/>
    </contour>
    <contour>
      <point x="98" y="359" type="line"/>
      <point x="46" y="-4" type="line"/>
      <point x="122" y="3" type="line"/>
      <point x="127" y="109" type="line"/>
      <point x="176" y="463" type="line"/>
      <point x="103" y="456" type="line"/>
    </contour>
    <contour>
      <point x="328" y="465" type="line"/>
      <point x="269" y="419"/>
      <point x="219" y="350"/>
      <point x="154" y="238" type="curve"/>
      <point x="139" y="238" type="line"/>
      <point x="119" y="76" type="line"/>
      <point x="212" y="282"/>
      <point x="288" y="382"/>
      <point x="326" y="382" type="curve" smooth="yes"/>
      <point x="338" y="382"/>
      <point x="346" y="371"/>
      <point x="345" y="345" type="curve"/>
      <point x="344" y="332" type="line"/>
      <point x="293" y="14" type="line"/>
      <point x="371" y="108" type="line"/>
      <point x="415" y="365" type="line"/>
      <point x="416" y="378" type="line"/>
      <point x="417" y="425"/>
      <point x="382" y="455"/>
      <point x="339" y="465" type="curve"/>
    </contour>
    <contour>
      <point x="292" y="14" type="line"/>
      <point x="282" y="-68"/>
      <point x="254" y="-108"/>
      <point x="192" y="-151" type="curve"/>
      <point x="191" y="-160" type="line"/>
      <point x="215" y="-194" type="line"/>
      <point x="306" y="-141"/>
      <point x="344" y="-87"/>
      <point x="360" y="18" type="curve"/>
      <point x="371" y="108" type="line"/>
    </contour>
  </outline>
</glyph>
<glyph name="Tcedilla" format="1">
  <advance width="467"/>
  <unicode hex="0162"/>
  <outline>
    <contour>
      <point x="189" y="10" type="line"/>
      <point x="169" y="-67" type="line"/>
      <point x="213" y="-95" type="line" smooth="yes"/>
      <point x="223" y="-103"/>
      <point x="230" y="-109"/>
      <point x="230" y="-122" type="curve" smooth="yes"/>
      <point x="230" y="-139"/>
      <point x="220" y="-150"/>
      <point x="202" y="-150" type="curve" smooth="yes"/>
      <point x="179" y="-150"/>
      <point x="165" y="-137"/>
      <point x="152" y="-119" type="curve"/>
      <point x="147" y="-120" type="line"/>
      <point x="139" y="-155" type="line"/>
      <point x="154" y="-170"/>
      <point x="175" y="-186"/>
      <point x="205" y="-186" type="curve" smooth="yes"/>
      <point x="245" y="-186"/>
      <point x="276" y="-161"/>
      <point x="276" y="-123" type="curve" smooth="yes"/>
      <point x="276" y="-101"/>
      <point x="265" y="-86"/>
      <point x="241" y="-70" type="curve" smooth="yes"/>
      <point x="211" y="-51" type="line"/>
      <point x="227" y="10" type="line"/>
    </contour>
    <component base="T"/>
  </outline>
</glyph>
<glyph name="tbar" format="1">
  <advance width="332"/>
  <unicode hex="0167"/>
  <outline>
    <contour>
      <point x="34" y="290" type="line"/>
      <point x="30" y="248" type="line"/>
      <point x="36" y="242" type="line"/>
      <point x="287" y="242" type="line"/>
      <point x="291" y="284" type="line"/>
      <point x="284" y="290" type="line"/>
    </contour>
    <component base="t" xOffset="4"/>
  </outline>
</glyph>
<glyph name="uogonek" format="1">
  <advance width="472"/>
  <unicode hex="0173"/>
  <outline>
    <contour>
      <point x="303" y="16" type="line"/>
      <point x="228" y="-63"/>
      <point x="208" y="-93"/>
      <point x="208" y="-127" type="curve" smooth="yes"/>
      <point x="208" y="-170"/>
      <point x="239" y="-197"/>
      <point x="278" y="-197" type="curve" smooth="yes"/>
      <point x="312" y="-197"/>
      <point x="339" y="-177"/>
      <point x="365" y="-148" type="curve"/>
      <point x="351" y="-108" type="line"/>
      <point x="348" y="-108" type="line"/>
      <point x="330" y="-133"/>
      <point x="309" y="-145"/>
      <point x="290" y="-145" type="curve" smooth="yes"/>
      <point x="272" y="-145"/>
      <point x="258" y="-137"/>
      <point x="258" y="-116" type="curve" smooth="yes"/>
      <point x="258" y="-93"/>
      <point x="275" y="-68"/>
      <point x="349" y="12" type="curve"/>
    </contour>
    <component base="u"/>
  </outline>
</glyph>
<glyph name="Ohorn" format="1">
  <advance width="614"/>
  <unicode hex="01A0"/>
  <outline>
    <contour>
      <point x="607" y="764"/>
      <point x="592" y="758"/>
      <point x="579" y="749" type="curve"/>
      <point x="576" y="741" type="line"/>
      <point x="592" y="724"/>
      <point x="599" y="701"/>
      <point x="599" y="681" type="curve" smooth="yes"/>
      <point x="599" y="637"/>
      <point x="563" y="616"/>
      <point x="524" y="616" type="curve" smooth="yes"/>
      <point x="478" y="616"/>
      <point x="448" y="647"/>
      <point x="357" y="647" type="curve" smooth="yes"/>
      <point x="163" y="647"/>
      <point x="47" y="492"/>
      <point x="47" y="268" type="curve" smooth="yes"/>
      <point x="47" y="81"/>
      <point x="128" y="-8"/>
      <point x="276" y="-8" type="curve" smooth="yes"/>
      <point x="473" y="-8"/>
      <point x="589" y="152"/>
      <point x="589" y="380" type="curve" smooth="yes"/>
      <point x="589" y="463"/>
      <point x="574" y="526"/>
      <point x="534" y="574" type="curve"/>
      <point x="604" y="577"/>
      <point x="660" y="619"/>
      <point x="660" y="691" type="curve" smooth="yes"/>
      <point x="660" y="734"/>
      <point x="639" y="764"/>
      <point x="617" y="764" type="curve" smooth="yes"/>
    </contour>
    <contour>
      <point x="462" y="584"/>
      <point x="511" y="518"/>
      <point x="511" y="368" type="curve" smooth="yes"/>
      <point x="511" y="180"/>
      <point x="435" y="55"/>
      <point x="284" y="55" type="curve" smooth="yes"/>
      <point x="172" y="55"/>
      <point x="124" y="124"/>
      <point x="124" y="274" type="curve" smooth="yes"/>
      <point x="124" y="462"/>
      <point x="199" y="584"/>
      <point x="351" y="584" type="curve" smooth="yes"/>
    </contour>
    <contour>
      <point x="357" y="640" type="move" name="top"/>
    </contour>
  </outline>
</glyph>
<glyph name="ohorn" format="1">
  <advance width="432"/>
  <unicode hex="01A1"/>
  <outline>
    <contour>
      <point x="425" y="583"/>
      <point x="412" y="577"/>
      <point x="397" y="566" type="curve"/>
      <point x="395" y="557" type="line"/>
      <point x="416" y="537"/>
      <point x="426" y="515"/>
      <point x="426" y="492" type="curve" smooth="yes"/>
      <point x="426" y="458"/>
      <point x="403" y="439"/>
      <point x="365" y="439" type="curve" smooth="yes"/>
      <point x="335" y="439"/>
      <point x="317" y="457"/>
      <point x="274" y="466" type="curve"/>
      <point x="360" y="394" type="line"/>
      <point x="429" y="392"/>
      <point x="488" y="437"/>
      <point x="488" y="503" type="curve" smooth="yes"/>
      <point x="488" y="549"/>
      <point x="458" y="583"/>
      <point x="437" y="583" type="curve" smooth="yes"/>
    </contour>
    <contour>
      <point x="126" y="459"/>
      <point x="42" y="328"/>
      <point x="42" y="150" type="curve" smooth="yes"/>
      <point x="42" y="51"/>
      <point x="79" y="6"/>
      <point x="156" y="-8" type="curve"/>
      <point x="164" y="-9" type="line"/>
      <point x="303" y="3"/>
      <point x="385" y="129"/>
      <point x="385" y="314" type="curve" smooth="yes"/>
      <point x="385" y="363"/>
      <point x="375" y="397"/>
      <point x="355" y="422" type="curve"/>
      <point x="274" y="466" type="line"/>
      <point x="266" y="466" type="line"/>
    </contour>
    <contour>
      <point x="296" y="407"/>
      <point x="315" y="378"/>
      <point x="315" y="308" type="curve" smooth="yes"/>
      <point x="315" y="155"/>
      <point x="266" y="49"/>
      <point x="174" y="49" type="curve" smooth="yes"/>
      <point x="129" y="49"/>
      <point x="111" y="80"/>
      <point x="111" y="151" type="curve" smooth="yes"/>
      <point x="111" y="303"/>
      <point x="160" y="407"/>
      <point x="253" y="407" type="curve" smooth="yes"/>
    </contour>
    <contour>
      <point x="253" y="458" type="move" name="top"/>
    </contour>
  </outline>
</glyph>
<glyph name="oogonek" format="1">
  <advance width="429"/>
  <unicode hex="01EB"/>
  <outline>
    <contour>
      <point x="225" y="45" type="line"/>
      <point x="162" y="-47" type="line" smooth="yes"/>
      <point x="145" y="-72"/>
      <point x="137" y="-96"/>
      <point x="137" y="-120" type="curve" smooth="yes"/>
      <point x="137" y="-165"/>
      <point x="168" y="-198"/>
      <point x="215" y="-198" type="curve" smooth="yes"/>
      <point x="250" y="-198"/>
      <point x="281" y="-179"/>
      <point x="313" y="-145" type="curve"/>
      <point x="302" y="-107" type="line"/>
      <point x="297" y="-107" type="line"/>
      <point x="275" y="-132"/>
      <point x="250" y="-147"/>
      <point x="227" y="-147" type="curve" smooth="yes"/>
      <point x="201" y="-147"/>
      <point x="187" y="-130"/>
      <point x="187" y="-106" type="curve" smooth="yes"/>
      <point x="187" y="-91"/>
      <point x="193" y="-75"/>
      <point x="205" y="-56" type="curve" smooth="yes"/>
      <point x="273" y="48" type="line"/>
    </contour>
    <component base="o"/>
    <contour>
      <point x="313" y="9" type="move" name="_ogonek"/>
    </contour>
  </outline>
</glyph>
<glyph name="dotlessj" format="1">
  <advance width="232"/>
  <unicode hex="0237"/>
  <outline>
    <contour>
      <point x="108" y="450" type="line"/>
      <point x="37" y="450" type="line"/>
      <point x="31" y="405" type="line"/>
      <point x="36" y="400" type="line"/>
      <point x="111" y="400" type="line"/>
      <point x="109" y="358" type="line"/>
      <point x="60" y="14" type="line"/>
      <point x="50" y="-68"/>
      <point x="23" y="-108"/>
      <point x="-42" y="-151" type="curve"/>
      <point x="-43" y="-160" type="line"/>
      <point x="-18" y="-194" type="line"/>
      <point x="76" y="-141"/>
      <point x="114" y="-87"/>
      <point x="128" y="18" type="curve"/>
      <point x="137" y="108" type="line"/>
      <point x="186" y="458" type="line"/>
      <point x="183" y="460" type="line"/>
    </contour>
    <contour>
      <point x="145" y="458" type="move" name="top"/>
    </contour>
  </outline>
</glyph>
<glyph name="tilde" format="1">
  <advance width="390"/>
  <unicode hex="02DC"/>
  <outline>
    <contour>
      <point x="366" y="665" type="line"/>
      <point x="340" y="639"/>
      <point x="324" y="619"/>
      <point x="309" y="619" type="curve"/>
      <point x="284" y="619"/>
      <point x="196" y="650"/>
      <point x="154" y="655" type="curve"/>
      <point x="144" y="652" type="line"/>
      <point x="84" y="585" type="line"/>
      <point x="84" y="578" type="line"/>
      <point x="107" y="553" type="line"/>
      <point x="115" y="553" type="line"/>
      <point x="141" y="578"/>
      <point x="156" y="599"/>
      <point x="172" y="599" type="curve"/>
      <point x="197" y="599"/>
      <point x="285" y="567"/>
      <point x="327" y="562" type="curve"/>
      <point x="336" y="566" type="line"/>
      <point x="396" y="633" type="line"/>
      <point x="396" y="640" type="line"/>
      <point x="373" y="665" type="line"/>
    </contour>
    <contour>
      <point x="223" y="458" type="move" name="_top"/>
    </contour>
  </outline>
</glyph>
<glyph name="Omega" format="1">
  <advance width="709"/>
  <unicode hex="03A9"/>
  <outline>
    <contour>
      <point x="208" y="647"/>
      <point x="101" y="495"/>
      <point x="101" y="318" type="curve" smooth="yes"/>
      <point x="101" y="224"/>
      <point x="133" y="126"/>
      <point x="197" y="62" type="curve"/>
      <point x="196" y="59" type="line"/>
      <point x="109" y="59" type="line"/>
      <point x="29" y="65" type="line"/>
      <point x="11" y="4" type="line"/>
      <point x="16" y="-3" type="line"/>
      <point x="99" y="0" type="line"/>
      <point x="237" y="0" type="line"/>
      <point x="274" y="-2" type="line"/>
      <point x="279" y="2" type="line"/>
      <point x="286" y="62" type="line"/>
      <point x="216" y="122"/>
      <point x="179" y="225"/>
      <point x="179" y="322" type="curve" smooth="yes"/>
      <point x="179" y="466"/>
      <point x="254" y="585"/>
      <point x="399" y="585" type="curve" smooth="yes"/>
      <point x="516" y="585"/>
      <point x="567" y="504"/>
      <point x="567" y="398" type="curve" smooth="yes"/>
      <point x="567" y="273"/>
      <point x="498" y="142"/>
      <point x="383" y="62" type="curve"/>
      <point x="376" y="2" type="line"/>
      <point x="379" y="-2" type="line"/>
      <point x="417" y="0" type="line"/>
      <point x="541" y="0" type="line"/>
      <point x="635" y="-4" type="line"/>
      <point x="651" y="60" type="line"/>
      <point x="648" y="65" type="line"/>
      <point x="571" y="59" type="line"/>
      <point x="473" y="59" type="line"/>
      <point x="472" y="62" type="line"/>
      <point x="584" y="151"/>
      <point x="645" y="281"/>
      <point x="645" y="403" type="curve" smooth="yes"/>
      <point x="645" y="537"/>
      <point x="568" y="647"/>
      <point x="404" y="647" type="curve" smooth="yes"/>
    </contour>
    <contour>
      <point x="2" y="640" type="move" name="topleft"/>
    </contour>
  </outline>
</glyph>
<glyph name="Odotbelow" format="1">
  <advance width="611"/>
  <unicode hex="1ECC"/>
  <outline>
    <component base="O"/>
    <component base="dotbelowcomb" xOffset="141"/>
    <contour>
      <point x="358" y="640" type="move" name="top"/>
    </contour>
  </outline>
</glyph>
<glyph name="emdash" format="1">
  <advance width="932"/>
  <unicode hex="2014"/>
  <outline>
    <contour>
      <point x="-4" y="282" type="line"/>
      <point x="-14" y="235" type="line"/>
      <point x="-9" y="229" type="line"/>
      <point x="946" y="229" type="line"/>
      <point x="955" y="276" type="line"/>
      <point x="950" y="282" type="line"/>
    </contour>
  </outline>
</glyph>
<glyph name="product" format="1">
  <advance width="663"/>
  <unicode hex="220F"/>
  <outline>
    <contour>
      <point x="110" y="640" type="line"/>
      <point x="96" y="585" type="line"/>
      <point x="101" y="578" type="line"/>
      <point x="214" y="579" type="line"/>
      <point x="536" y="579" type="line"/>
      <point x="646" y="578" type="line"/>
      <point x="660" y="633" type="line"/>
      <point x="655" y="640" type="line"/>
    </contour>
    <component base="I" xOffset="14"/>
    <component base="I" xOffset="385"/>
  </outline>
</glyph>
<glyph name="lozenge" format="1">
  <advance width="497"/>
  <unicode hex="25CA"/>
  <outline>
    <contour>
      <point x="264" y="641" type="line"/>
      <point x="63" y="292" type="line"/>
      <point x="60" y="268" type="line"/>
      <point x="177" y="-77" type="line"/>
      <point x="183" y="-81" type="line"/>
      <point x="239" y="-79" type="line"/>
      <point x="440" y="269" type="line"/>
      <point x="444" y="294" type="line"/>
      <point x="327" y="640" type="line"/>
      <point x="321" y="643" type="line"/>
    </contour>
    <contour>
      <point x="391" y="281" type="line"/>
      <point x="219" y="-18" type="line"/>
      <point x="215" y="-18" type="line"/>
      <point x="112" y="279" type="line"/>
      <point x="284" y="580" type="line"/>
      <point x="289" y="580" type="line"/>
    </contour>
  </outline>
</glyph>
<glyph name="D.ss01" format="1">
  <advance width="535"/>
  <outline>
    <contour>
      <point x="124" y="491" type="line"/>
      <point x="174" y="431" type="line"/>
      <point x="197" y="433"/>
      <point x="273" y="436"/>
      <point x="291" y="436" type="curve" smooth="yes"/>
      <point x="378" y="436"/>
      <point x="424" y="388"/>
      <point x="424" y="288" type="curve" smooth="yes"/>
      <point x="424" y="136"/>
      <point x="357" y="57"/>
      <point x="242" y="57" type="curve" smooth="yes"/>
      <point x="222" y="57"/>
      <point x="151" y="60"/>
      <point x="125" y="63" type="curve"/>
      <point x="63" y="6" type="line"/>
      <point x="106" y="3"/>
      <point x="192" y="1"/>
      <point x="223" y="1" type="curve"/>
      <point x="397" y="1"/>
      <point x="495" y="116"/>
      <point x="495" y="302" type="curve" smooth="yes"/>
      <point x="495" y="424"/>
      <point x="428" y="494"/>
      <point x="303" y="494" type="curve"/>
    </contour>
    <contour>
      <point x="-119" y="33" type="line"/>
      <point x="-124" y="0" type="line"/>
      <point x="603" y="0" type="line"/>
      <point x="608" y="33" type="line"/>
    </contour>
    <contour>
      <point x="124" y="491" type="line"/>
      <point x="84" y="152" type="line"/>
      <point x="63" y="6" type="line"/>
      <point x="131" y="6" type="line"/>
      <point x="147" y="158" type="line"/>
      <point x="192" y="491" type="line"/>
    </contour>
    <contour>
      <point x="-60" y="498" type="line"/>
      <point x="-65" y="464" type="line"/>
      <point x="662" y="464" type="line"/>
      <point x="666" y="498" type="line"/>
    </contour>
    <contour>
      <point x="258" y="248" type="move" name="center"/>
    </contour>
    <contour>
      <point x="287" y="491" type="move" name="top"/>
    </contour>
  </outline>
</glyph>
<glyph name="I.ss01" format="1">
  <advance width="244"/>
  <outline>
    <contour>
      <point x="119" y="496" type="line"/>
      <point x="79" y="150" type="line"/>
      <point x="57" y="1" type="line"/>
      <point x="127" y="1" type="line"/>
      <point x="144" y="156" type="line"/>
      <point x="189" y="496" type="line"/>
    </contour>
    <contour>
      <point x="-119" y="33" type="line"/>
      <point x="-124" y="0" type="line"/>
      <point x="312" y="0" type="line"/>
      <point x="316" y="33" type="line"/>
    </contour>
    <contour>
      <point x="-60" y="498" type="line"/>
      <point x="-65" y="464" type="line"/>
      <point x="371" y="464" type="line"/>
      <point x="375" y="498" type="line"/>
    </contour>
    <contour>
      <point x="155" y="9" type="move" name="ogonek"/>
    </contour>
    <contour>
      <point x="158" y="496" type="move" name="top"/>
    </contour>
  </outline>
</glyph>
<glyph name="M.ss01" format="1">
  <advance width="647"/>
  <outline>
    <contour>
      <point x="486" y="488" type="line"/>
      <point x="453" y="424" type="line"/>
      <point x="318" y="170" type="line"/>
      <point x="312" y="170" type="line"/>
      <point x="244" y="421" type="line"/>
      <point x="228" y="488" type="line"/>
      <point x="151" y="488" type="line"/>
      <point x="41" y="11" type="line"/>
      <point x="100" y="11" type="line"/>
      <point x="131" y="168" type="line"/>
      <point x="182" y="390" type="line"/>
      <point x="187" y="390" type="line"/>
      <point x="273" y="83" type="line"/>
      <point x="328" y="83" type="line"/>
      <point x="496" y="390" type="line"/>
      <point x="502" y="390" type="line"/>
      <point x="497" y="164" type="line"/>
      <point x="488" y="11" type="line"/>
      <point x="547" y="11" type="line"/>
      <point x="560" y="488" type="line"/>
    </contour>
    <contour>
      <point x="-119" y="33" type="line"/>
      <point x="-124" y="0" type="line"/>
      <point x="714" y="0" type="line"/>
      <point x="718" y="33" type="line"/>
    </contour>
    <contour>
      <point x="-60" y="498" type="line"/>
      <point x="-65" y="464" type="line"/>
      <point x="774" y="464" type="line"/>
      <point x="778" y="498" type="line"/>
    </contour>
  </outline>
</glyph>
<glyph name="Q.corta" format="1">
  <advance width="609"/>
  <outline>
    <contour>
      <point x="159" y="647"/>
      <point x="47" y="499"/>
      <point x="47" y="255" type="curve" smooth="yes"/>
      <point x="47" y="89"/>
      <point x="132" y="-8"/>
      <point x="276" y="-8" type="curve" smooth="yes"/>
      <point x="478" y="-8"/>
      <point x="590" y="145"/>
      <point x="590" y="391" type="curve" smooth="yes"/>
      <point x="590" y="554"/>
      <point x="506" y="647"/>
      <point x="360" y="647" type="curve"/>
    </contour>
    <contour>
      <point x="284" y="2" type="line"/>
      <point x="343" y="-74"/>
      <point x="420" y="-134"/>
      <point x="521" y="-188" type="curve"/>
      <point x="528" y="-185" type="line"/>
      <point x="542" y="-172"/>
      <point x="556" y="-155"/>
      <point x="569" y="-133" type="curve"/>
      <point x="568" y="-124" type="line"/>
      <point x="467" y="-83"/>
      <point x="394" y="-34"/>
      <point x="341" y="28" type="curve"/>
    </contour>
    <contour>
      <point x="458" y="584"/>
      <point x="511" y="517"/>
      <point x="511" y="382" type="curve" smooth="yes"/>
      <point x="511" y="172"/>
      <point x="435" y="55"/>
      <point x="282" y="55" type="curve" smooth="yes"/>
      <point x="177" y="55"/>
      <point x="124" y="124"/>
      <point x="124" y="260" type="curve" smooth="yes"/>
      <point x="124" y="468"/>
      <point x="197" y="584"/>
      <point x="351" y="584" type="curve" smooth="yes"/>
    </contour>
  </outline>
</glyph>
<glyph name="b.sups" format="1">
  <advance width="312"/>
  <outline>
    <contour>
      <point x="253" y="644" type="line"/>
      <point x="217" y="610"/>
      <point x="182" y="560"/>
      <point x="153" y="506" type="curve"/>
      <point x="138" y="506" type="line"/>
      <point x="127" y="408" type="line"/>
      <point x="181" y="523"/>
      <point x="235" y="588"/>
      <point x="246" y="588" type="curve" smooth="yes"/>
      <point x="254" y="588"/>
      <point x="266" y="571"/>
      <point x="266" y="522" type="curve" smooth="yes"/>
      <point x="266" y="444"/>
      <point x="233" y="377"/>
      <point x="175" y="377" type="curve"/>
      <point x="112" y="394" type="line"/>
      <point x="82" y="348" type="line"/>
      <point x="164" y="333" type="line"/>
      <point x="168" y="333" type="line"/>
      <point x="269" y="351"/>
      <point x="323" y="444"/>
      <point x="323" y="545" type="curve" smooth="yes"/>
      <point x="323" y="598"/>
      <point x="307" y="626"/>
      <point x="263" y="644" type="curve"/>
    </contour>
    <contour>
      <point x="187" y="810" type="line"/>
      <point x="125" y="805" type="line"/>
      <point x="120" y="738" type="line"/>
      <point x="69" y="349" type="line"/>
      <point x="128" y="339" type="line"/>
      <point x="130" y="377" type="line"/>
      <point x="140" y="455" type="line"/>
      <point x="187" y="810" type="line"/>
    </contour>
    <contour>
      <point x="303" y="0" type="move" name="bottom"/>
    </contour>
    <contour>
      <point x="231" y="396" type="move" name="top"/>
    </contour>
  </outline>
</glyph>
<glyph name="circumflexacute" format="1">
  <advance width="390"/>
  <outline>
    <contour>
      <point x="229" y="653" type="line"/>
      <point x="191" y="622"/>
      <point x="150" y="592"/>
      <point x="105" y="564" type="curve"/>
      <point x="117" y="531" type="line"/>
      <point x="126" y="531" type="line"/>
      <point x="164" y="553"/>
      <point x="200" y="575"/>
      <point x="236" y="598" type="curve"/>
      <point x="267" y="575"/>
      <point x="297" y="553"/>
      <point x="329" y="531" type="curve"/>
      <point x="338" y="531" type="line"/>
      <point x="357" y="564" type="line"/>
      <point x="321" y="592"/>
      <point x="284" y="622"/>
      <point x="251" y="653" type="curve"/>
    </contour>
    <contour>
      <point x="344" y="746" type="line"/>
      <point x="287" y="656" type="line"/>
      <point x="313" y="636" type="line"/>
      <point x="331" y="648" type="line"/>
      <point x="401" y="735" type="line"/>
      <point x="398" y="743" type="line"/>
      <point x="362" y="761" type="line"/>
    </contour>
    <contour>
      <point x="222" y="458" type="move" name="_top"/>
    </contour>
  </outline>
</glyph>
<glyph name="dieresis.i" format="1">
  <advance width="390"/>
  <outline>
    <contour>
      <point x="278" y="648"/>
      <point x="262" y="631"/>
      <point x="262" y="604" type="curve" smooth="yes"/>
      <point x="262" y="578"/>
      <point x="277" y="563"/>
      <point x="303" y="563" type="curve" smooth="yes"/>
      <point x="328" y="563"/>
      <point x="345" y="580"/>
      <point x="345" y="607" type="curve" smooth="yes"/>
      <point x="345" y="632"/>
      <point x="330" y="648"/>
      <point x="305" y="648" type="curve" smooth="yes"/>
    </contour>
    <contour>
      <point x="153" y="648"/>
      <point x="137" y="631"/>
      <point x="137" y="604" type="curve" smooth="yes"/>
      <point x="137" y="578"/>
      <point x="152" y="563"/>
      <point x="178" y="563" type="curve" smooth="yes"/>
      <point x="203" y="563"/>
      <point x="220" y="580"/>
      <point x="220" y="607" type="curve" smooth="yes"/>
      <point x="220" y="632"/>
      <point x="205" y="648"/>
      <point x="181" y="648" type="curve" smooth="yes"/>
    </contour>
    <contour>
      <point x="223" y="458" type="move" name="_top"/>
    </contour>
  </outline>
</glyph>
<glyph name="eight.tf" format="1">
  <advance width="476"/>
  <outline>
    <contour>
      <point x="234" y="477" type="move"/>
    </contour>
    <contour>
      <point x="171" y="592"/>
      <point x="97" y="525"/>
      <point x="97" y="428" type="curve" smooth="yes"/>
      <point x="97" y="358"/>
      <point x="134" y="327"/>
      <point x="181" y="301" type="curve"/>
      <point x="180" y="297" type="line"/>
      <point x="108" y="265"/>
      <point x="41" y="224"/>
      <point x="41" y="138" type="curve" smooth="yes"/>
      <point x="41" y="51"/>
      <point x="109" y="-7"/>
      <point x="217" y="-7" type="curve" smooth="yes"/>
      <point x="338" y="-7"/>
      <point x="418" y="65"/>
      <point x="418" y="164" type="curve" smooth="yes"/>
      <point x="418" y="245"/>
      <point x="367" y="277"/>
      <point x="311" y="304" type="curve"/>
      <point x="312" y="309" type="line"/>
      <point x="369" y="335"/>
      <point x="431" y="378"/>
      <point x="431" y="460" type="curve" smooth="yes"/>
      <point x="431" y="544"/>
      <point x="369" y="592"/>
      <point x="278" y="592" type="curve" smooth="yes"/>
    </contour>
    <contour>
      <point x="304" y="247"/>
      <point x="354" y="223"/>
      <point x="354" y="160" type="curve" smooth="yes"/>
      <point x="354" y="95"/>
      <point x="299" y="46"/>
      <point x="218" y="46" type="curve" smooth="yes"/>
      <point x="146" y="46"/>
      <point x="105" y="85"/>
      <point x="105" y="146" type="curve" smooth="yes"/>
      <point x="105" y="223"/>
      <point x="173" y="251"/>
      <point x="236" y="274" type="curve"/>
    </contour>
    <contour>
      <point x="336" y="538"/>
      <point x="369" y="508"/>
      <point x="369" y="454" type="curve" smooth="yes"/>
      <point x="369" y="385"/>
      <point x="312" y="352"/>
      <point x="254" y="329" type="curve"/>
      <point x="201" y="351"/>
      <point x="158" y="375"/>
      <point x="158" y="435" type="curve" smooth="yes"/>
      <point x="158" y="496"/>
      <point x="207" y="538"/>
      <point x="277" y="538" type="curve" smooth="yes"/>
    </contour>
  </outline>
</glyph>
<glyph name="f.f" format="1">
  <advance width="275"/>
  <outline>
    <contour>
      <point x="216" y="685"/>
      <point x="161" y="618"/>
      <point x="144" y="499" type="curve" smooth="yes"/>
      <point x="101" y="190" type="line"/>
      <point x="57" y="-127" type="line"/>
      <point x="133" y="-121" type="line"/>
      <point x="137" y="-14" type="line"/>
      <point x="168" y="199" type="line"/>
      <point x="211" y="518" type="line" smooth="yes"/>
      <point x="221" y="591"/>
      <point x="258" y="630"/>
      <point x="312" y="630" type="curve" smooth="yes"/>
      <point x="335" y="630"/>
      <point x="367" y="622"/>
      <point x="391" y="608" type="curve"/>
      <point x="402" y="610" type="line"/>
      <point x="423" y="664" type="line"/>
      <point x="420" y="671" type="line"/>
      <point x="328" y="685" type="line"/>
    </contour>
    <contour>
      <point x="63" y="450" type="line"/>
      <point x="56" y="405" type="line"/>
      <point x="61" y="400" type="line"/>
      <point x="437" y="400" type="line"/>
      <point x="444" y="442" type="line"/>
      <point x="438" y="450" type="line"/>
    </contour>
    <contour>
      <point x="195" y="0" type="move" name="bottom"/>
    </contour>
    <contour>
      <point x="303" y="749" type="move" name="top"/>
    </contour>
  </outline>
</glyph>
<glyph name="f.t" format="1">
  <advance width="279"/>
  <outline>
    <contour>
      <point x="218" y="704"/>
      <point x="163" y="637"/>
      <point x="147" y="518" type="curve" smooth="yes"/>
      <point x="101" y="190" type="line"/>
      <point x="57" y="-127" type="line"/>
      <point x="133" y="-121" type="line"/>
      <point x="137" y="-14" type="line"/>
      <point x="168" y="199" type="line"/>
      <point x="213" y="537" type="line" smooth="yes"/>
      <point x="222" y="610"/>
      <point x="261" y="649"/>
      <point x="314" y="649" type="curve" smooth="yes"/>
      <point x="337" y="649"/>
      <point x="369" y="641"/>
      <point x="394" y="627" type="curve"/>
      <point x="405" y="629" type="line"/>
      <point x="425" y="683" type="line"/>
      <point x="422" y="690" type="line"/>
      <point x="331" y="704" type="line"/>
    </contour>
    <contour>
      <point x="63" y="450" type="line"/>
      <point x="56" y="405" type="line"/>
      <point x="61" y="400" type="line"/>
      <point x="438" y="400" type="line"/>
      <point x="445" y="442" type="line"/>
      <point x="439" y="450" type="line"/>
    </contour>
    <contour>
      <point x="173" y="0" type="move" name="bottom"/>
    </contour>
    <contour>
      <point x="280" y="749" type="move" name="top"/>
    </contour>
  </outline>
</glyph>
<glyph name="five.tosf" format="1">
  <advance width="474"/>
  <outline>
    <contour>
      <point x="342" y="498" type="line"/>
      <point x="199" y="498" type="line"/>
      <point x="143" y="500" type="line"/>
      <point x="129" y="488" type="line"/>
      <point x="97" y="230" type="line"/>
      <point x="103" y="223" type="line"/>
      <point x="200" y="205" type="line" smooth="yes"/>
      <point x="281" y="190"/>
      <point x="321" y="156"/>
      <point x="321" y="102" type="curve" smooth="yes"/>
      <point x="321" y="21"/>
      <point x="249" y="-39"/>
      <point x="140" y="-39" type="curve" smooth="yes"/>
      <point x="107" y="-39"/>
      <point x="72" y="-32"/>
      <point x="34" y="-16" type="curve"/>
      <point x="26" y="-22" type="line"/>
      <point x="25" y="-89" type="line"/>
      <point x="57" y="-94"/>
      <point x="94" y="-98"/>
      <point x="125" y="-98" type="curve" smooth="yes"/>
      <point x="278" y="-98"/>
      <point x="393" y="-6"/>
      <point x="393" y="110" type="curve" smooth="yes"/>
      <point x="393" y="191"/>
      <point x="338" y="241"/>
      <point x="227" y="263" type="curve" smooth="yes"/>
      <point x="161" y="276" type="line"/>
      <point x="182" y="436" type="line"/>
      <point x="345" y="436" type="line"/>
      <point x="418" y="431" type="line"/>
      <point x="424" y="436" type="line"/>
      <point x="438" y="496" type="line"/>
      <point x="435" y="501" type="line"/>
    </contour>
  </outline>
</glyph>
<glyph name="g.sups" format="1">
  <advance width="312"/>
  <outline>
    <contour>
      <point x="302" y="648" type="line"/>
      <point x="250" y="634" type="line"/>
      <point x="246" y="578" type="line"/>
      <point x="216" y="348" type="line" smooth="yes"/>
      <point x="208" y="282"/>
      <point x="173" y="250"/>
      <point x="126" y="250" type="curve" smooth="yes"/>
      <point x="101" y="250"/>
      <point x="83" y="259"/>
      <point x="74" y="278" type="curve" smooth="yes"/>
      <point x="70" y="286"/>
      <point x="68" y="294"/>
      <point x="68" y="298" type="curve" smooth="yes"/>
      <point x="68" y="301"/>
      <point x="68" y="303"/>
      <point x="73" y="308" type="curve" smooth="yes"/>
      <point x="134" y="352" type="line"/>
      <point x="104" y="375" type="line"/>
      <point x="103" y="361" type="line"/>
      <point x="9" y="306" type="line"/>
      <point x="6" y="299" type="line"/>
      <point x="16" y="243"/>
      <point x="53" y="206"/>
      <point x="115" y="206" type="curve" smooth="yes"/>
      <point x="198" y="206"/>
      <point x="260" y="258"/>
      <point x="273" y="365" type="curve" smooth="yes"/>
      <point x="279" y="424" type="line"/>
      <point x="308" y="644" type="line"/>
      <point x="302" y="648" type="line"/>
    </contour>
    <contour>
      <point x="220" y="645" type="line"/>
      <point x="217" y="645" type="line"/>
      <point x="121" y="627"/>
      <point x="73" y="540"/>
      <point x="73" y="447" type="curve" smooth="yes"/>
      <point x="73" y="399"/>
      <point x="87" y="369"/>
      <point x="126" y="352" type="curve"/>
      <point x="134" y="352" type="line"/>
      <point x="167" y="386"/>
      <point x="201" y="431"/>
      <point x="227" y="482" type="curve"/>
      <point x="235" y="482" type="line"/>
      <point x="252" y="575" type="line"/>
      <point x="203" y="465"/>
      <point x="154" y="405"/>
      <point x="144" y="405" type="curve" smooth="yes"/>
      <point x="136" y="405"/>
      <point x="124" y="420"/>
      <point x="124" y="465" type="curve" smooth="yes"/>
      <point x="124" y="542"/>
      <point x="155" y="602"/>
      <point x="211" y="602" type="curve"/>
      <point x="268" y="595" type="line"/>
      <point x="295" y="635" type="line"/>
      <point x="220" y="645" type="line"/>
    </contour>
    <contour>
      <point x="6" y="0" type="move" name="top"/>
    </contour>
  </outline>
</glyph>
<glyph name="hungarumlaut.cap" format="1">
  <advance width="390"/>
  <outline>
    <contour>
      <point x="261" y="536" type="line"/>
      <point x="270" y="537" type="line"/>
      <point x="309" y="573"/>
      <point x="349" y="609"/>
      <point x="388" y="647" type="curve"/>
      <point x="388" y="655" type="line"/>
      <point x="352" y="679" type="line"/>
      <point x="346" y="679" type="line"/>
      <point x="310" y="637"/>
      <point x="273" y="599"/>
      <point x="236" y="559" type="curve"/>
    </contour>
    <contour>
      <point x="119" y="536" type="line"/>
      <point x="128" y="537" type="line"/>
      <point x="168" y="573"/>
      <point x="207" y="609"/>
      <point x="246" y="647" type="curve"/>
      <point x="246" y="655" type="line"/>
      <point x="211" y="679" type="line"/>
      <point x="204" y="679" type="line"/>
      <point x="168" y="637"/>
      <point x="131" y="599"/>
      <point x="94" y="559" type="curve"/>
    </contour>
    <contour>
      <point x="222" y="458" type="move" name="_top"/>
    </contour>
  </outline>
</glyph>
<glyph name="j.sups" format="1">
  <advance width="171"/>
  <outline>
    <contour>
      <point x="163" y="643" type="line"/>
      <point x="107" y="638" type="line"/>
      <point x="61" y="638" type="line"/>
      <point x="56" y="606" type="line"/>
      <point x="59" y="602" type="line"/>
      <point x="102" y="602" type="line"/>
      <point x="101" y="573" type="line"/>
      <point x="71" y="346" type="line"/>
      <point x="63" y="295"/>
      <point x="47" y="268"/>
      <point x="11" y="241" type="curve"/>
      <point x="10" y="235" type="line"/>
      <point x="30" y="208" type="line"/>
      <point x="91" y="243"/>
      <point x="119" y="282"/>
      <point x="128" y="354" type="curve"/>
      <point x="135" y="405" type="line"/>
      <point x="165" y="641" type="line"/>
      <point x="163" y="643" type="line"/>
    </contour>
    <contour>
      <point x="122" y="788"/>
      <point x="107" y="776"/>
      <point x="107" y="751" type="curve" smooth="yes"/>
      <point x="107" y="729"/>
      <point x="120" y="718"/>
      <point x="142" y="718" type="curve" smooth="yes"/>
      <point x="164" y="718"/>
      <point x="179" y="731"/>
      <point x="179" y="755" type="curve" smooth="yes"/>
      <point x="179" y="776"/>
      <point x="166" y="788"/>
      <point x="145" y="788" type="curve" smooth="yes"/>
    </contour>
    <contour>
      <point x="6" y="0" type="move" name="_top"/>
    </contour>
    <contour>
      <point x="6" y="0" type="move" name="top"/>
    </contour>
  </outline>
</glyph>
<glyph name="kgreenlandic.sc" format="1">
  <advance width="470"/>
  <outline>
    <component base="k.sc"/>
    <contour>
      <point x="227" y="0" type="move" name="bottom"/>
    </contour>
    <contour>
      <point x="220" y="498" type="move" name="top"/>
    </contour>
  </outline>
</glyph>
<glyph name="l.sups" format="1">
  <advance width="157"/>
  <outline>
    <contour>
      <point x="179" y="810" type="line"/>
      <point x="118" y="805" type="line"/>
      <point x="115" y="738" type="line"/>
      <point x="61" y="334" type="line"/>
      <point x="122" y="338" type="line"/>
      <point x="127" y="410" type="line"/>
      <point x="179" y="810" type="line"/>
    </contour>
    <contour>
      <point x="6" y="0" type="move" name="bottom"/>
    </contour>
    <contour>
      <point x="6" y="0" type="move" name="top"/>
    </contour>
    <contour>
      <point x="6" y="0" type="move" name="topright"/>
    </contour>
  </outline>
</glyph>
<glyph name="left" format="1">
  <advance width="410"/>
  <outline>
    <contour>
      <point x="33" y="225" type="line"/>
      <point x="316" y="84" type="line"/>
      <point x="316" y="367" type="line"/>
    </contour>
  </outline>
</glyph>
<glyph name="one.dnom" format="1">
  <advance width="257"/>
  <outline>
    <contour>
      <point x="28" y="342" type="line"/>
      <point x="22" y="293" type="line"/>
      <point x="26" y="289" type="line"/>
      <point x="115" y="311" type="line"/>
      <point x="92" y="126" type="line"/>
      <point x="76" y="0" type="line"/>
      <point x="139" y="0" type="line"/>
      <point x="154" y="133" type="line"/>
      <point x="185" y="375" type="line"/>
      <point x="178" y="382" type="line"/>
    </contour>
  </outline>
</glyph>
<glyph name="one.lf" format="1">
  <advance width="354"/>
  <outline>
    <contour>
      <point x="48" y="533" type="line"/>
      <point x="41" y="474" type="line"/>
      <point x="48" y="470" type="line"/>
      <point x="191" y="507" type="line"/>
      <point x="153" y="198" type="line"/>
      <point x="125" y="0" type="line"/>
      <point x="200" y="0" type="line"/>
      <point x="221" y="207" type="line"/>
      <point x="273" y="585" type="line"/>
      <point x="263" y="594" type="line"/>
    </contour>
  </outline>
</glyph>
<glyph name="r.sups" format="1">
  <advance width="229"/>
  <outline>
    <contour>
      <point x="259" y="642" type="line"/>
      <point x="226" y="633"/>
      <point x="189" y="583"/>
      <point x="153" y="506" type="curve"/>
      <point x="137" y="506" type="line"/>
      <point x="127" y="423" type="line"/>
      <point x="174" y="518"/>
      <point x="212" y="572"/>
      <point x="243" y="572" type="curve"/>
      <point x="256" y="570" type="line"/>
      <point x="263" y="572" type="line"/>
      <point x="272" y="640" type="line"/>
      <point x="259" y="642" type="line"/>
    </contour>
    <contour>
      <point x="161" y="644" type="line"/>
      <point x="101" y="640" type="line"/>
      <point x="97" y="573" type="line"/>
      <point x="65" y="334" type="line"/>
      <point x="127" y="338" type="line"/>
      <point x="133" y="410" type="line"/>
      <point x="161" y="644" type="line"/>
    </contour>
    <contour>
      <point x="6" y="0" type="move" name="bottom"/>
    </contour>
    <contour>
      <point x="6" y="0" type="move" name="ogonek"/>
    </contour>
    <contour>
      <point x="6" y="0" type="move" name="top"/>
    </contour>
  </outline>
</glyph>
<glyph name="right" format="1">
  <advance width="410"/>
  <outline>
    <contour>
      <point x="95" y="84" type="line"/>
      <point x="378" y="225" type="line"/>
      <point x="95" y="367" type="line"/>
    </contour>
  </outline>
</glyph>
<glyph name="seven.tosf" format="1">
  <advance width="475"/>
  <outline>
    <contour>
      <point x="67" y="436" type="line"/>
      <point x="72" y="428" type="line"/>
      <point x="150" y="435" type="line"/>
      <point x="382" y="435" type="line"/>
      <point x="66" y="-71" type="line"/>
      <point x="69" y="-83" type="line"/>
      <point x="129" y="-102" type="line"/>
      <point x="190" y="14" type="line"/>
      <point x="456" y="444" type="line"/>
      <point x="461" y="500" type="line"/>
      <point x="416" y="498" type="line"/>
      <point x="171" y="498" type="line"/>
      <point x="80" y="500" type="line"/>
    </contour>
  </outline>
</glyph>
<glyph name="t.sups" format="1">
  <advance width="230"/>
  <outline>
    <contour>
      <point x="189" y="730" type="line"/>
      <point x="132" y="714" type="line"/>
      <point x="113" y="574" type="line"/>
      <point x="86" y="408" type="line"/>
      <point x="85" y="389" type="line"/>
      <point x="85" y="349"/>
      <point x="105" y="336"/>
      <point x="151" y="333" type="curve"/>
      <point x="159" y="334" type="line"/>
      <point x="189" y="343"/>
      <point x="213" y="367"/>
      <point x="233" y="410" type="curve"/>
      <point x="217" y="430" type="line"/>
      <point x="207" y="431" type="line"/>
      <point x="193" y="396"/>
      <point x="178" y="383"/>
      <point x="162" y="383" type="curve" smooth="yes"/>
      <point x="150" y="383"/>
      <point x="144" y="388"/>
      <point x="143" y="403" type="curve"/>
      <point x="145" y="414" type="line"/>
      <point x="194" y="726" type="line"/>
      <point x="189" y="730" type="line"/>
    </contour>
    <contour>
      <point x="262" y="638" type="line"/>
      <point x="75" y="638" type="line"/>
      <point x="71" y="606" type="line"/>
      <point x="75" y="602" type="line"/>
      <point x="262" y="602" type="line"/>
      <point x="266" y="632" type="line"/>
      <point x="262" y="638" type="line"/>
    </contour>
    <contour>
      <point x="6" y="0" type="move" name="bottom"/>
    </contour>
    <contour>
      <point x="6" y="0" type="move" name="center"/>
    </contour>
  </outline>
</glyph>
<glyph name="three.tf" format="1">
  <advance width="476"/>
  <outline>
    <contour>
      <point x="199" y="594"/>
      <point x="152" y="574"/>
      <point x="96" y="532" type="curve"/>
      <point x="100" y="472" type="line"/>
      <point x="108" y="472" type="line"/>
      <point x="157" y="511"/>
      <point x="199" y="532"/>
      <point x="243" y="532" type="curve" smooth="yes"/>
      <point x="293" y="532"/>
      <point x="324" y="505"/>
      <point x="324" y="462" type="curve" smooth="yes"/>
      <point x="324" y="389"/>
      <point x="243" y="337"/>
      <point x="185" y="337" type="curve" smooth="yes"/>
      <point x="141" y="336" type="line"/>
      <point x="132" y="284" type="line"/>
      <point x="136" y="278" type="line"/>
      <point x="195" y="278" type="line"/>
      <point x="275" y="275"/>
      <point x="318" y="241"/>
      <point x="318" y="185" type="curve" smooth="yes"/>
      <point x="318" y="105"/>
      <point x="247" y="55"/>
      <point x="148" y="55" type="curve" smooth="yes"/>
      <point x="116" y="55"/>
      <point x="81" y="63"/>
      <point x="49" y="78" type="curve"/>
      <point x="42" y="72" type="line"/>
      <point x="39" y="5" type="line"/>
      <point x="69" y="-1"/>
      <point x="110" y="-5"/>
      <point x="141" y="-5" type="curve" smooth="yes"/>
      <point x="283" y="-5"/>
      <point x="390" y="79"/>
      <point x="390" y="190" type="curve" smooth="yes"/>
      <point x="390" y="258"/>
      <point x="350" y="298"/>
      <point x="280" y="315" type="curve"/>
      <point x="280" y="319" type="line"/>
      <point x="363" y="357"/>
      <point x="402" y="421"/>
      <point x="402" y="477" type="curve" smooth="yes"/>
      <point x="402" y="547"/>
      <point x="347" y="594"/>
      <point x="255" y="594" type="curve" smooth="yes"/>
    </contour>
  </outline>
</glyph>
<glyph name="uni0066006A" format="1">
  <advance width="500"/>
  <outline>
    <contour>
      <point x="218" y="704"/>
      <point x="163" y="637"/>
      <point x="146" y="518" type="curve" smooth="yes"/>
      <point x="101" y="190" type="line"/>
      <point x="56" y="-127" type="line"/>
      <point x="132" y="-121" type="line"/>
      <point x="137" y="-14" type="line"/>
      <point x="167" y="199" type="line"/>
      <point x="213" y="537" type="line" smooth="yes"/>
      <point x="223" y="609"/>
      <point x="260" y="649"/>
      <point x="312" y="649" type="curve" smooth="yes"/>
      <point x="344" y="649"/>
      <point x="374" y="636"/>
      <point x="407" y="614" type="curve"/>
      <point x="419" y="616" type="line"/>
      <point x="437" y="675" type="line"/>
      <point x="434" y="682" type="line"/>
      <point x="329" y="704" type="line"/>
    </contour>
    <contour>
      <point x="63" y="450" type="line"/>
      <point x="56" y="405" type="line"/>
      <point x="61" y="400" type="line"/>
      <point x="418" y="400" type="line"/>
      <point x="424" y="442" type="line"/>
      <point x="419" y="450" type="line"/>
    </contour>
    <contour>
      <point x="376" y="448" type="line"/>
      <point x="372" y="359" type="line"/>
      <point x="323" y="14" type="line"/>
      <point x="400" y="108" type="line"/>
      <point x="450" y="459" type="line"/>
      <point x="444" y="463" type="line"/>
    </contour>
    <contour>
      <point x="324" y="14" type="line"/>
      <point x="314" y="-68"/>
      <point x="288" y="-108"/>
      <point x="227" y="-151" type="curve"/>
      <point x="226" y="-160" type="line"/>
      <point x="250" y="-194" type="line"/>
      <point x="341" y="-141"/>
      <point x="377" y="-87"/>
      <point x="391" y="18" type="curve"/>
      <point x="400" y="108" type="line"/>
    </contour>
  </outline>
</glyph>
<glyph name="zero.tf" format="1">
  <advance width="482"/>
  <outline>
    <contour>
      <point x="132" y="590"/>
      <point x="47" y="448"/>
      <point x="47" y="222" type="curve" smooth="yes"/>
      <point x="47" y="76"/>
      <point x="105" y="-7"/>
      <point x="216" y="-7" type="curve" smooth="yes"/>
      <point x="364" y="-7"/>
      <point x="451" y="138"/>
      <point x="451" y="362" type="curve" smooth="yes"/>
      <point x="451" y="507"/>
      <point x="390" y="590"/>
      <point x="286" y="590" type="curve" smooth="yes"/>
    </contour>
    <contour>
      <point x="351" y="521"/>
      <point x="391" y="459"/>
      <point x="391" y="345" type="curve" smooth="yes"/>
      <point x="391" y="168"/>
      <point x="332" y="60"/>
      <point x="221" y="60" type="curve" smooth="yes"/>
      <point x="146" y="60"/>
      <point x="107" y="122"/>
      <point x="107" y="236" type="curve" smooth="yes"/>
      <point x="107" y="412"/>
      <point x="166" y="521"/>
      <point x="275" y="521" type="curve" smooth="yes"/>
    </contour>
  </outline>
</glyph>
